<svg width="264" height="61" viewBox="0 0 264 61" fill="none" xmlns="http://www.w3.org/2000/svg">
<path d="M264 0H0V61H264V0Z" fill="white"/>
<path fill-rule="evenodd" clip-rule="evenodd" d="M11.9912 53.1226L5.82759 46.8828C5.56789 46.6202 5.56789 46.1958 5.82759 45.9325L11.9912 39.6926C12.3661 39.3126 12.9761 39.3126 13.3516 39.6926C13.7265 40.0727 13.7265 40.6894 13.3516 41.0694L8.07899 46.408L13.3516 51.7452C13.7265 52.1259 13.7265 52.7426 13.3516 53.1226C12.9761 53.5026 12.3661 53.5026 11.9912 53.1226Z" fill="#007AFF"/>
<path d="M21.866 19.963C23.744 19.963 24.8596 18.4943 24.8596 16.0074C24.8596 15.0709 24.6805 14.2829 24.3376 13.674C23.8413 12.7273 22.9867 12.2156 21.907 12.2156C20.3002 12.2156 19.1641 13.2953 19.1641 14.81C19.1641 16.2325 20.1876 17.2662 21.5948 17.2662C22.4596 17.2662 23.1607 16.862 23.5086 16.1609H23.524C23.524 16.1609 23.5445 16.1609 23.5496 16.1609C23.5598 16.1609 23.5956 16.1609 23.5956 16.1609C23.5956 17.8496 22.956 18.8577 21.8763 18.8577C21.2417 18.8577 20.7505 18.5097 20.5816 17.9519H19.2665C19.4865 19.1647 20.5151 19.963 21.866 19.963ZM21.9121 16.2172C21.0626 16.2172 20.4588 15.6134 20.4588 14.769C20.4588 13.9452 21.0933 13.3158 21.9172 13.3158C22.7411 13.3158 23.3756 13.9554 23.3756 14.7895C23.3756 15.6134 22.7564 16.2172 21.9121 16.2172Z" fill="black"/>
<path d="M27.061 19.0008C27.5471 19.0008 27.8797 18.6529 27.8797 18.1923C27.8797 17.7267 27.5471 17.3838 27.061 17.3838C26.58 17.3838 26.2422 17.7267 26.2422 18.1923C26.2422 18.6529 26.58 19.0008 27.061 19.0008ZM27.061 15.163C27.5471 15.163 27.8797 14.8201 27.8797 14.3596C27.8797 13.8939 27.5471 13.551 27.061 13.551C26.58 13.551 26.2422 13.8939 26.2422 14.3596C26.2422 14.8201 26.58 15.163 27.061 15.163Z" fill="black"/>
<path d="M32.8654 19.7839H34.1293V18.4074H35.1272V17.2918H34.1293V12.3998H32.2667C30.9618 14.3648 29.923 16.0074 29.2578 17.2304V18.4074H32.8654V19.7839ZM30.4808 17.2458C31.3405 15.7311 32.108 14.5183 32.8142 13.4744H32.8859V17.3225H30.4808V17.2458Z" fill="black"/>
<path d="M38.0374 19.7839H39.3576V12.3998H38.0425L36.1133 13.7507V15.0198L37.9504 13.7302H38.0374V19.7839Z" fill="black"/>
<path fill-rule="evenodd" clip-rule="evenodd" d="M239.199 12.2102H249.554C250.426 12.2102 250.742 12.301 251.061 12.4715C251.38 12.642 251.63 12.8922 251.8 13.211C251.971 13.5298 252.062 13.846 252.062 14.7181V17.7371C252.062 18.6091 251.971 18.9253 251.8 19.2441C251.63 19.5629 251.38 19.8131 251.061 19.9836C250.742 20.1541 250.426 20.2449 249.554 20.2449H239.199C238.327 20.2449 238.011 20.1541 237.692 19.9836C237.373 19.8131 237.123 19.5629 236.952 19.2441C236.782 18.9253 236.691 18.6091 236.691 17.7371V14.7181C236.691 13.846 236.782 13.5298 236.952 13.211C237.123 12.8922 237.373 12.642 237.692 12.4715C238.011 12.301 238.327 12.2102 239.199 12.2102ZM239.199 12.9089C238.509 12.9089 238.268 12.9554 238.021 13.0876C237.824 13.193 237.674 13.3435 237.568 13.5405C237.436 13.7878 237.39 14.0285 237.39 14.7181V17.7371C237.39 18.4267 237.436 18.6674 237.568 18.9146C237.674 19.1117 237.824 19.2621 238.021 19.3675C238.268 19.4998 238.509 19.5462 239.199 19.5462H249.554C250.243 19.5462 250.484 19.4998 250.731 19.3675C250.928 19.2621 251.079 19.1117 251.184 18.9146C251.316 18.6674 251.363 18.4267 251.363 17.7371V14.7181C251.363 14.0285 251.316 13.7878 251.184 13.5405C251.079 13.3435 250.928 13.193 250.731 13.0876C250.484 12.9554 250.243 12.9089 249.554 12.9089H239.199ZM253.808 16.1857C253.808 17.0496 252.76 17.583 252.76 17.583V14.7883C252.76 14.7883 253.808 15.3217 253.808 16.1857Z" fill="black" fill-opacity="0.36"/>
<path d="M238.086 15.338C238.086 14.7119 238.086 14.3989 238.208 14.1597C238.315 13.9494 238.486 13.7784 238.697 13.6712C238.936 13.5494 239.249 13.5494 239.875 13.5494H248.874C249.5 13.5494 249.813 13.5494 250.052 13.6712C250.262 13.7784 250.433 13.9494 250.541 14.1597C250.662 14.3989 250.662 14.7119 250.662 15.338V17.1172C250.662 17.7433 250.662 18.0563 250.541 18.2955C250.433 18.5058 250.262 18.6768 250.052 18.784C249.813 18.9058 249.5 18.9058 248.874 18.9058H239.875C239.249 18.9058 238.936 18.9058 238.697 18.784C238.486 18.6768 238.315 18.5058 238.208 18.2955C238.086 18.0563 238.086 17.7433 238.086 17.1172V15.338Z" fill="black"/>
<path fill-rule="evenodd" clip-rule="evenodd" d="M216.863 13.1926C216.847 13.2736 216.847 13.371 216.847 13.5657V18.9455C216.847 19.1403 216.847 19.2377 216.863 19.3186C216.929 19.6512 217.189 19.9112 217.522 19.9774C217.603 19.9935 217.7 19.9935 217.895 19.9935C218.09 19.9935 218.187 19.9935 218.268 19.9774C218.601 19.9112 218.861 19.6512 218.927 19.3186C218.943 19.2377 218.943 19.1403 218.943 18.9455V13.5657C218.943 13.371 218.943 13.2736 218.927 13.1926C218.861 12.86 218.601 12.6 218.268 12.5339C218.187 12.5177 218.09 12.5177 217.895 12.5177C217.7 12.5177 217.603 12.5177 217.522 12.5339C217.189 12.6 216.929 12.86 216.863 13.1926ZM213.563 15.2425C213.563 15.0478 213.563 14.9504 213.579 14.8694C213.645 14.5368 213.905 14.2768 214.238 14.2107C214.319 14.1945 214.416 14.1945 214.611 14.1945C214.806 14.1945 214.903 14.1945 214.984 14.2107C215.317 14.2768 215.577 14.5368 215.643 14.8694C215.659 14.9504 215.659 15.0478 215.659 15.2425V18.9455C215.659 19.1403 215.659 19.2377 215.643 19.3186C215.577 19.6512 215.317 19.9112 214.984 19.9774C214.903 19.9935 214.806 19.9935 214.611 19.9935C214.416 19.9935 214.319 19.9935 214.238 19.9774C213.905 19.9112 213.645 19.6512 213.579 19.3186C213.563 19.2377 213.563 19.1403 213.563 18.9455V15.2425ZM210.365 16.4763C210.349 16.5573 210.349 16.6547 210.349 16.8495V18.9455C210.349 19.1403 210.349 19.2377 210.365 19.3186C210.431 19.6512 210.691 19.9112 211.024 19.9774C211.105 19.9935 211.202 19.9935 211.397 19.9935C211.592 19.9935 211.689 19.9935 211.77 19.9774C212.103 19.9112 212.363 19.6512 212.429 19.3186C212.445 19.2377 212.445 19.1403 212.445 18.9455V16.8495C212.445 16.6547 212.445 16.5573 212.429 16.4763C212.363 16.1437 212.103 15.8837 211.77 15.8176C211.689 15.8015 211.592 15.8015 211.397 15.8015C211.202 15.8015 211.105 15.8015 211.024 15.8176C210.691 15.8837 210.431 16.1437 210.365 16.4763ZM207.012 17.8736C206.996 17.9546 206.996 18.052 206.996 18.2468V18.9455C206.996 19.1403 206.996 19.2377 207.012 19.3186C207.078 19.6512 207.338 19.9112 207.67 19.9774C207.751 19.9935 207.849 19.9935 208.044 19.9935C208.238 19.9935 208.336 19.9935 208.417 19.9774C208.749 19.9112 209.009 19.6512 209.075 19.3186C209.092 19.2377 209.092 19.1403 209.092 18.9455V18.2468C209.092 18.052 209.092 17.9546 209.075 17.8736C209.009 17.5411 208.749 17.2811 208.417 17.2149C208.336 17.1988 208.238 17.1988 208.044 17.1988C207.849 17.1988 207.751 17.1988 207.67 17.2149C207.338 17.2811 207.078 17.5411 207.012 17.8736Z" fill="black"/>
<path fill-rule="evenodd" clip-rule="evenodd" d="M227.818 13.9822C229.379 13.9823 230.881 14.5821 232.012 15.6578C232.097 15.7408 232.233 15.7397 232.317 15.6554L233.132 14.8335C233.174 14.7907 233.198 14.7328 233.198 14.6725C233.197 14.6122 233.173 14.5545 233.13 14.5122C230.16 11.6663 225.476 11.6663 222.506 14.5122C222.463 14.5545 222.439 14.6121 222.438 14.6724C222.438 14.7327 222.461 14.7907 222.504 14.8335L223.319 15.6554C223.402 15.7399 223.539 15.7409 223.624 15.6578C224.755 14.582 226.257 13.9822 227.818 13.9822ZM227.818 16.6563C228.676 16.6562 229.503 16.975 230.139 17.5508C230.225 17.6325 230.36 17.6307 230.444 17.5468L231.258 16.7248C231.3 16.6817 231.324 16.6232 231.324 16.5625C231.323 16.5017 231.298 16.4437 231.254 16.4015C229.318 14.6005 226.32 14.6005 224.384 16.4015C224.34 16.4437 224.315 16.5017 224.314 16.5625C224.314 16.6233 224.338 16.6818 224.381 16.7248L225.194 17.5468C225.278 17.6307 225.413 17.6325 225.499 17.5508C226.135 16.9754 226.961 16.6566 227.818 16.6563ZM229.381 18.6178C229.425 18.5751 229.449 18.5164 229.448 18.4554C229.446 18.3945 229.42 18.3368 229.375 18.2959C228.476 17.5358 227.16 17.5358 226.261 18.2959C226.216 18.3367 226.19 18.3945 226.189 18.4554C226.187 18.5163 226.211 18.5751 226.255 18.6178L227.662 20.0379C227.703 20.0796 227.759 20.1031 227.818 20.1031C227.877 20.1031 227.933 20.0796 227.974 20.0379L229.381 18.6178Z" fill="black"/>
<path d="M129.137 52.5481C129.137 53.2948 128.965 53.8955 128.622 54.3502C128.279 54.8018 127.818 55.0277 127.24 55.0277C126.623 55.0277 126.146 54.8094 125.808 54.3728L125.768 54.9373H125V48H125.836V50.588C126.173 50.1694 126.638 49.9602 127.231 49.9602C127.824 49.9602 128.29 50.1845 128.627 50.6331C128.967 51.0818 129.137 51.696 129.137 52.4758V52.5481ZM128.302 52.4533C128.302 51.8842 128.192 51.4446 127.972 51.1344C127.752 50.8243 127.436 50.6692 127.023 50.6692C126.472 50.6692 126.076 50.9252 125.836 51.4371V53.5508C126.091 54.0626 126.49 54.3186 127.032 54.3186C127.433 54.3186 127.745 54.1635 127.967 53.8534C128.19 53.5432 128.302 53.0765 128.302 52.4533Z" fill="#787878"/>
<path d="M129.973 52.4487C129.973 51.97 130.066 51.5394 130.253 51.157C130.442 50.7746 130.704 50.4796 131.039 50.2718C131.376 50.064 131.76 49.9602 132.19 49.9602C132.856 49.9602 133.393 50.1905 133.803 50.6512C134.215 51.1119 134.421 51.7246 134.421 52.4894V52.5481C134.421 53.0238 134.33 53.4514 134.146 53.8308C133.965 54.2072 133.705 54.5007 133.365 54.7115C133.027 54.9223 132.639 55.0277 132.199 55.0277C131.537 55.0277 130.999 54.7973 130.587 54.3366C130.177 53.876 129.973 53.2662 129.973 52.5075V52.4487ZM130.813 52.5481C130.813 53.0901 130.938 53.5252 131.188 53.8534C131.441 54.1816 131.778 54.3457 132.199 54.3457C132.624 54.3457 132.961 54.1801 133.211 53.8489C133.461 53.5146 133.586 53.0479 133.586 52.4487C133.586 51.9128 133.458 51.4792 133.202 51.148C132.949 50.8138 132.612 50.6467 132.19 50.6467C131.778 50.6467 131.445 50.8108 131.192 51.139C130.939 51.4672 130.813 51.9369 130.813 52.5481Z" fill="#787878"/>
<path d="M136.603 48.8672V50.0505H137.515V50.6963H136.603V53.7269C136.603 53.9226 136.644 54.0702 136.725 54.1695C136.806 54.2659 136.945 54.3141 137.14 54.3141C137.237 54.3141 137.369 54.296 137.538 54.2599V54.9373C137.318 54.9976 137.104 55.0277 136.896 55.0277C136.523 55.0277 136.242 54.9148 136.052 54.6889C135.862 54.4631 135.767 54.1424 135.767 53.7269V50.6963H134.878V50.0505H135.767V48.8672H136.603Z" fill="#787878"/>
</svg>
