<svg xmlns="http://www.w3.org/2000/svg" width="101.237" height="99.015" viewBox="0 0 101.237 99.015">
  <g id="api" transform="translate(0 -5.139)">
    <path id="Path_1905" data-name="Path 1905" d="M83.222,19.009H0V7.839a2.7,2.7,0,0,1,2.7-2.7H80.522a2.7,2.7,0,0,1,2.7,2.7Z" transform="translate(0)" fill="#3a556a"/>
    <path id="Path_1906" data-name="Path 1906" d="M80.522,135.876H2.7a2.7,2.7,0,0,1-2.7-2.7V69.3H83.222v63.878A2.7,2.7,0,0,1,80.522,135.876Z" transform="translate(0 -50.29)" fill="#e1e6e9"/>
    <circle id="Ellipse_127" data-name="Ellipse 127" cx="3.468" cy="3.468" r="3.468" transform="translate(5.548 8.607)" fill="#fcd462"/>
    <circle id="Ellipse_128" data-name="Ellipse 128" cx="3.468" cy="3.468" r="3.468" transform="translate(16.645 8.607)" fill="#27a2db"/>
    <circle id="Ellipse_129" data-name="Ellipse 129" cx="3.468" cy="3.468" r="3.468" transform="translate(27.74 8.607)" fill="#44c4a1"/>
    <path id="Path_1907" data-name="Path 1907" d="M240.87,216.748l6.146-1.512v-7.742l-6.146-1.512a24.8,24.8,0,0,0-3.336-8.032l3.282-5.424-5.475-5.475-5.425,3.282A24.792,24.792,0,0,0,221.885,187l-1.513-6.147H212.63L211.117,187a24.8,24.8,0,0,0-8.032,3.336l-5.425-3.282-5.475,5.475,3.282,5.424a24.794,24.794,0,0,0-3.335,8.031l-6.146,1.513v7.742l6.146,1.512a24.8,24.8,0,0,0,3.336,8.032l-3.282,5.424,5.475,5.475,5.424-3.282a24.794,24.794,0,0,0,8.032,3.336l1.512,6.145h7.743l1.512-6.145a24.792,24.792,0,0,0,8.032-3.336l5.424,3.281,5.475-5.475-3.282-5.424A24.8,24.8,0,0,0,240.87,216.748Z" transform="translate(-145.779 -137.725)" fill="#27a2db"/>
    <circle id="Ellipse_130" data-name="Ellipse 130" cx="19.419" cy="19.419" r="19.419" transform="translate(51.304 54.22)" fill="#e1e6e9"/>
    <circle id="Ellipse_131" data-name="Ellipse 131" cx="11.096" cy="11.096" r="11.096" transform="translate(59.627 62.543)" fill="#1c75a1"/>
    <g id="Group_1672" data-name="Group 1672" transform="translate(11.001 30.381)">
      <path id="Path_1908" data-name="Path 1908" d="M54.861,132.844l-1.418,3.222H50.889L57.13,121.9h2.554l6.241,14.165H63.373l-1.419-3.222Zm6.12-2.208L58.408,124.8l-2.574,5.837Z" transform="translate(-50.889 -121.901)" fill="#3a556a"/>
      <path id="Path_1909" data-name="Path 1909" d="M139.1,123.137a4.686,4.686,0,0,1,1.479,3.81,4.518,4.518,0,0,1-1.51,3.77,7.408,7.408,0,0,1-4.631,1.2h-2.512v4.154h-2.391V121.9H134.4A7.288,7.288,0,0,1,139.1,123.137Zm-1.692,5.846a3.125,3.125,0,0,0,.719-2.228,2.312,2.312,0,0,0-.912-2.078,5.251,5.251,0,0,0-2.857-.607h-2.432v5.673h2.776A3.7,3.7,0,0,0,137.411,128.984Z" transform="translate(-112.535 -121.902)" fill="#3a556a"/>
      <path id="Path_1910" data-name="Path 1910" d="M193.656,121.9h2.391v14.165h-2.391Z" transform="translate(-162.792 -121.902)" fill="#3a556a"/>
    </g>
    <path id="Path_1911" data-name="Path 1911" d="M221.8,30.13H189.829a2.7,2.7,0,0,1-2.7-2.7h0a2.7,2.7,0,0,1,2.7-2.7H221.8a2.7,2.7,0,0,1,2.7,2.7h0A2.7,2.7,0,0,1,221.8,30.13Z" transform="translate(-146.675 -15.357)" fill="#e1e6e9"/>
  </g>
</svg>
