<svg xmlns="http://www.w3.org/2000/svg" xmlns:xlink="http://www.w3.org/1999/xlink" width="202.06" height="125.863" viewBox="0 0 202.06 125.863">
  <defs>
    <filter id="Union_1" x="0" y="0" width="202.06" height="86.618" filterUnits="userSpaceOnUse">
      <feOffset dy="3" input="SourceAlpha"/>
      <feGaussianBlur stdDeviation="1.5" result="blur"/>
      <feFlood flood-opacity="0.059"/>
      <feComposite operator="in" in2="blur"/>
      <feComposite in="SourceGraphic"/>
    </filter>
    <filter id="Rectangle_3058" x="100.184" y="88.594" width="97.845" height="37.269" filterUnits="userSpaceOnUse">
      <feOffset dy="2" input="SourceAlpha"/>
      <feGaussianBlur stdDeviation="1.5" result="blur-2"/>
      <feFlood flood-opacity="0.102"/>
      <feComposite operator="in" in2="blur-2"/>
      <feComposite in="SourceGraphic"/>
    </filter>
    <filter id="Rectangle_3057" x="4.029" y="88.594" width="97.845" height="37.269" filterUnits="userSpaceOnUse">
      <feOffset dy="2" input="SourceAlpha"/>
      <feGaussianBlur stdDeviation="1.5" result="blur-3"/>
      <feFlood flood-opacity="0.102"/>
      <feComposite operator="in" in2="blur-3"/>
      <feComposite in="SourceGraphic"/>
    </filter>
  </defs>
  <g id="chat" transform="translate(-1258.97 -498.318)">
    <g id="Group_1673" data-name="Group 1673">
      <g id="Group_1667" data-name="Group 1667" transform="translate(1263.47 499.818)">
        <g transform="matrix(1, 0, 0, 1, -4.5, -1.5)" filter="url(#Union_1)">
          <path id="Union_1-2" data-name="Union 1" d="M10,77.618a10,10,0,0,1-10-10V10A10,10,0,0,1,10,0H177.9a10,10,0,0,1,10,10V67.618a9.989,9.989,0,0,1-.5,3.128c.262,1.258,1.176,3.281,4.275,4.436,1.417.538,1.831.384.831.768s-4.524,1.4-7.322.126a1.36,1.36,0,0,1-.795-.849,9.96,9.96,0,0,1-6.489,2.391Z" transform="translate(4.5 1.5)" fill="#fff"/>
        </g>
      </g>
      <rect id="Rectangle_3060" data-name="Rectangle 3060" width="47.757" height="6.512" rx="3.256" transform="translate(1387.473 532.972)" fill="#e9e9e9"/>
      <rect id="Rectangle_3059" data-name="Rectangle 3059" width="141.389" height="6.512" rx="3.256" transform="translate(1293.841 518.861)" fill="#e9e9e9"/>
      <rect id="Rectangle_3061" data-name="Rectangle 3061" width="39.074" height="6.512" rx="3.256" transform="translate(1396.156 545.996)" fill="#e9e9e9"/>
      <rect id="Rectangle_3062" data-name="Rectangle 3062" width="23.879" height="6.512" rx="3.256" transform="translate(1355.303 532.972)" fill="#e9e9e9"/>
      <g id="Group_1670" data-name="Group 1670" transform="translate(1267.5 589.412)">
        <g transform="matrix(1, 0, 0, 1, -8.53, -91.09)" filter="url(#Rectangle_3058)">
          <rect id="Rectangle_3058-2" data-name="Rectangle 3058" width="88.845" height="28.269" rx="12" transform="translate(104.68 91.09)" fill="#fff"/>
        </g>
        <g transform="matrix(1, 0, 0, 1, -8.53, -91.09)" filter="url(#Rectangle_3057)">
          <rect id="Rectangle_3057-2" data-name="Rectangle 3057" width="88.845" height="28.269" rx="12" transform="translate(8.53 91.09)" fill="#fff"/>
        </g>
        <rect id="Rectangle_3063" data-name="Rectangle 3063" width="44" height="7" rx="3.5" transform="translate(119.501 10.588)" fill="#e9e9e9"/>
        <rect id="Rectangle_3064" data-name="Rectangle 3064" width="43" height="7" rx="3.5" transform="translate(23.501 10.588)" fill="#e9e9e9"/>
      </g>
    </g>
  </g>
</svg>
