<svg xmlns="http://www.w3.org/2000/svg" width="107.269" height="105.863" viewBox="0 0 107.269 105.863">
  <g id="Group_2" data-name="Group 2" transform="translate(-600.731 -526)">
    <g id="Page-1" transform="translate(600.735 526.142)">
      <g id="_008---Cloud-Server-Connection" data-name="008---Cloud-Server-Connection" transform="translate(-0.004)">
        <path id="Shape" d="M86.614,58.426V13.19H21V58.426Z" transform="translate(15.46 7.188)" fill="#44aa9a"/>
        <rect id="Rectangle-path" width="76" height="26" rx="13" transform="translate(31.269 61.858)" fill="#c3ece6"/>
        <path id="Shape-2" data-name="Shape" d="M78.146,34s-12.758,25.517-40.1,25.517H28.936A10.936,10.936,0,0,1,18,48.581V44.936A10.936,10.936,0,0,1,28.936,34Z" transform="translate(12.992 27.969)" fill="#dbfff9"/>
        <circle id="Oval" cx="2" cy="2" r="2" transform="translate(60.269 71.858)" fill="#44aa9a"/>
        <circle id="Oval-2" data-name="Oval" cx="2" cy="2" r="2" transform="translate(67.269 71.858)" fill="#44aa9a"/>
        <circle id="Oval-3" data-name="Oval" cx="2" cy="2" r="2" transform="translate(74.269 71.858)" fill="#44aa9a"/>
        <circle id="Oval-4" data-name="Oval" cx="2" cy="2" r="2" transform="translate(82.269 71.858)" fill="#44aa9a"/>
        <circle id="Oval-5" data-name="Oval" cx="2" cy="2" r="2" transform="translate(89.269 71.858)" fill="#44aa9a"/>
        <circle id="Oval-6" data-name="Oval" cx="2" cy="2" r="2" transform="translate(96.269 71.858)" fill="#44aa9a"/>
        <rect id="Rectangle-path-2" data-name="Rectangle-path" width="76" height="26" rx="13" transform="translate(31.269 -0.142)" fill="#c3ece6"/>
        <path id="Shape-3" data-name="Shape" d="M78.146,0s-12.758,25.517-40.1,25.517H28.936A10.936,10.936,0,0,1,18,14.581V10.936A10.936,10.936,0,0,1,28.936,0Z" transform="translate(12.992)" fill="#dbfff9"/>
        <circle id="Oval-7" data-name="Oval" cx="4" cy="4" r="4" transform="translate(40.269 8.858)" fill="#44aa9a"/>
        <g id="Group_1" data-name="Group 1">
          <circle id="Oval-8" data-name="Oval" cx="2" cy="2" r="2" transform="translate(53.269 10.858)" fill="#44aa9a"/>
          <circle id="Oval-9" data-name="Oval" cx="2" cy="2" r="2" transform="translate(60.269 10.858)" fill="#44aa9a"/>
          <circle id="Oval-10" data-name="Oval" cx="2" cy="2" r="2" transform="translate(67.269 10.858)" fill="#44aa9a"/>
          <circle id="Oval-11" data-name="Oval" cx="2" cy="2" r="2" transform="translate(74.269 10.858)" fill="#44aa9a"/>
          <circle id="Oval-12" data-name="Oval" cx="2" cy="2" r="2" transform="translate(82.269 10.858)" fill="#44aa9a"/>
          <circle id="Oval-13" data-name="Oval" cx="2" cy="2" r="2" transform="translate(89.269 10.858)" fill="#44aa9a"/>
          <circle id="Oval-14" data-name="Oval" cx="2" cy="2" r="2" transform="translate(96.269 10.858)" fill="#44aa9a"/>
        </g>
        <rect id="Rectangle-path-3" data-name="Rectangle-path" width="76" height="26" rx="13" transform="translate(31.269 30.858)" fill="#c3ece6"/>
        <path id="Shape-4" data-name="Shape" d="M78.146,17s-12.758,25.517-40.1,25.517H28.936A10.936,10.936,0,0,1,18,31.581V27.936A10.936,10.936,0,0,1,28.936,17Z" transform="translate(12.992 13.984)" fill="#dbfff9"/>
        <circle id="Oval-15" data-name="Oval" cx="4" cy="4" r="4" transform="translate(40.269 39.858)" fill="#44aa9a"/>
        <circle id="Oval-16" data-name="Oval" cx="2" cy="2" r="2" transform="translate(53.269 41.858)" fill="#44aa9a"/>
        <circle id="Oval-17" data-name="Oval" cx="2" cy="2" r="2" transform="translate(60.269 41.858)" fill="#44aa9a"/>
        <circle id="Oval-18" data-name="Oval" cx="2" cy="2" r="2" transform="translate(67.269 41.858)" fill="#44aa9a"/>
        <circle id="Oval-19" data-name="Oval" cx="2" cy="2" r="2" transform="translate(74.269 41.858)" fill="#44aa9a"/>
        <circle id="Oval-20" data-name="Oval" cx="2" cy="2" r="2" transform="translate(82.269 41.858)" fill="#44aa9a"/>
        <circle id="Oval-21" data-name="Oval" cx="2" cy="2" r="2" transform="translate(89.269 41.858)" fill="#44aa9a"/>
        <circle id="Oval-22" data-name="Oval" cx="2" cy="2" r="2" transform="translate(96.269 41.858)" fill="#44aa9a"/>
        <path id="Shape-5" data-name="Shape" d="M69.648,61.848A15.109,15.109,0,0,1,54.521,76.939H15.243a13.013,13.013,0,1,1,0-26.009,11.3,11.3,0,0,1,1.823.128,17.224,17.224,0,0,1,33.682-3.809A15.146,15.146,0,0,1,69.721,61.83Z" transform="translate(-0.381 28.773)" fill="#29a71a"/>
        <path id="Shape-6" data-name="Shape" d="M25.991,27l-5.468-5.468a1.83,1.83,0,1,0-2.588,2.588L20.3,26.471H19.23A12.758,12.758,0,0,0,6.471,39.23V51.241L4.12,48.871a1.83,1.83,0,1,0-2.588,2.588L7,56.927a1.823,1.823,0,0,0,2.588,0l5.468-5.468a1.83,1.83,0,1,0-2.588-2.588l-2.351,2.369V39.23a9.113,9.113,0,0,1,9.113-9.113H20.3l-2.369,2.351a1.83,1.83,0,1,0,2.588,2.588l5.468-5.468a1.823,1.823,0,0,0,0-2.588Z" transform="translate(-0.996 17.272)" fill="#44aa9a"/>
      </g>
    </g>
    <g id="Layer_2" data-name="Layer 2" transform="translate(620.967 602.005)">
      <g id="_08.whatsapp" data-name="08.whatsapp" transform="translate(-2.005 1.995)">
        <g id="icon" transform="translate(5.325 0.242)">
          <path id="Path_1" data-name="Path 1" d="M51.6,36.169a10.61,10.61,0,0,0-17,12.274l-1.126,5.465a.4.4,0,0,0,.064.317.41.41,0,0,0,.436.169l5.356-1.27A10.608,10.608,0,0,0,51.6,36.169ZM49.927,49.5a8.31,8.31,0,0,1-9.57,1.555l-.747-.369-3.284.778.01-.041.68-3.305-.366-.721a8.306,8.306,0,0,1,13.275-9.641.443.443,0,0,0,.043.043A8.306,8.306,0,0,1,49.927,49.5Z" transform="translate(-33.447 -33.024)" fill="#fff"/>
          <path id="Path_2" data-name="Path 2" d="M71.439,69.82a3.45,3.45,0,0,1-1.837,1.6c-1.4.338-3.548.012-6.222-2.481l-.033-.029C61,66.732,60.386,64.918,60.534,63.48a3.438,3.438,0,0,1,1.336-2.038.764.764,0,0,1,1.2.274l.865,1.944a.76.76,0,0,1-.1.778l-.437.568a.752.752,0,0,0-.068.84,8.174,8.174,0,0,0,1.483,1.647,8.658,8.658,0,0,0,2.055,1.472.743.743,0,0,0,.815-.171l.507-.511a.778.778,0,0,1,.758-.194L71,68.671a.778.778,0,0,1,.436,1.149Z" transform="translate(-55.251 -55.77)" fill="#fff"/>
        </g>
      </g>
    </g>
  </g>
</svg>
