<svg id="Capa_1" enable-background="new 0 0 512 512" height="512" viewBox="0 0 512 512" width="512" xmlns="http://www.w3.org/2000/svg"><g><g><path d="m138.353 471.515v27.985c0 2.761 2.239 5 5 5h326.135c2.761 0 5-2.239 5-5v-27.985z" fill="#dbf1d0"/></g><g><path d="m175.865 499.5v-27.985h-37.512v27.985c0 2.761 2.239 5 5 5h37.512c-2.762 0-5-2.239-5-5z" fill="#c1e9af"/></g><path d="m138.353 440.53h336.135v31.985h-336.135z" fill="#dff6fd"/><path d="m138.353 440.53h37.512v31.985h-37.512z" fill="#c8effe"/><g><path d="m474.488 440.53h-336.135v-428.03c0-2.761 2.239-5 5-5h326.135c2.761 0 5 2.239 5 5z" fill="#fff3de"/></g><g><path d="m180.865 7.5h-37.512c-2.761 0-5 2.239-5 5v428.03h37.512v-428.03c0-2.761 2.238-5 5-5z" fill="#ffe5c2"/></g><g><g><path d="m254.127 102.338-1.2 1.778v26.456l1.2 1.778h174.144c1.657 0 3-1.343 3-3v-24.012c0-1.657-1.343-3-3-3z" fill="#fff"/><g><path d="m254.127 132.35h-69.557c-1.657 0-3-1.343-3-3v-24.012c0-1.657 1.343-3 3-3h69.557z" fill="#4fc123"/></g><g><path d="m207 129.35v-24.012c0-1.657 1.343-3 3-3h-25.43c-1.657 0-3 1.343-3 3v24.012c0 1.657 1.343 3 3 3h25.43c-1.657 0-3-1.343-3-3z" fill="#47a920"/></g></g><g><path d="m254.127 169.565-1.2 1.778v26.456l1.2 1.778h87.709c1.657 0 3-1.343 3-3v-24.012c0-1.657-1.343-3-3-3z" fill="#fff"/><g><path d="m372.447 172.565v24.012c0 1.657 1.343 3 3 3h52.824c1.657 0 3-1.343 3-3v-24.012c0-1.657-1.343-3-3-3h-52.824c-1.657 0-3 1.343-3 3z" fill="#01d0fb"/></g><g><path d="m398 196.577v-24.012c0-1.657 1.343-3 3-3h-25.553c-1.657 0-3 1.343-3 3v24.012c0 1.657 1.343 3 3 3h25.553c-1.657 0-3-1.343-3-3z" fill="#01c0fa"/></g><g><path d="m254.127 199.577h-69.557c-1.657 0-3-1.343-3-3v-24.012c0-1.657 1.343-3 3-3h69.557z" fill="#01d0fb"/></g><g><path d="m207 196.577v-24.012c0-1.657 1.343-3 3-3h-25.43c-1.657 0-3 1.343-3 3v24.012c0 1.657 1.343 3 3 3h25.43c-1.657 0-3-1.343-3-3z" fill="#01c0fa"/></g></g><g><path d="m254.127 303.419-1.2 1.778v26.457l1.2 1.778h174.144c1.657 0 3-1.343 3-3v-24.012c0-1.657-1.343-3-3-3h-174.144z" fill="#fff"/><g><path d="m254.127 333.431h-69.557c-1.657 0-3-1.343-3-3v-24.012c0-1.657 1.343-3 3-3h69.557z" fill="#4fc123"/></g><g><path d="m207 330.431v-24.012c0-1.657 1.343-3 3-3h-25.43c-1.657 0-3 1.343-3 3v24.012c0 1.657 1.343 3 3 3h25.43c-1.657 0-3-1.343-3-3z" fill="#47a920"/></g></g><g><path d="m254.127 360.442-1.2 1.778v26.457l1.2 1.778h174.144c1.657 0 3-1.343 3-3v-24.012c0-1.657-1.343-3-3-3h-174.144z" fill="#fff"/><g><path d="m254.127 390.454h-69.557c-1.657 0-3-1.343-3-3v-24.012c0-1.657 1.343-3 3-3h69.557z" fill="#4fc123"/></g><g><path d="m207 387.454v-24.012c0-1.657 1.343-3 3-3h-25.43c-1.657 0-3 1.343-3 3v24.012c0 1.657 1.343 3 3 3h25.43c-1.657 0-3-1.343-3-3z" fill="#47a920"/></g></g><g><path d="m208.582 268.005h-24.012c-1.657 0-3-1.343-3-3v-24.012c0-1.657 1.343-3 3-3h24.012c1.657 0 3 1.343 3 3v24.012c0 1.657-1.343 3-3 3z" fill="#01d0fb"/></g></g><g><g><path d="m103.539 360.442-17.059 43.149c-1.2 3.036-5.498 3.036-6.698 0l-17.059-43.149v-272.51c0-9.945 8.062-18.007 18.007-18.007h4.802c9.945 0 18.007 8.062 18.007 18.007z" fill="#3675bb"/></g><g><path d="m79.184 360.442v-272.51c0-7.902 5.098-14.599 12.178-17.024-1.831-.627-3.787-.983-5.83-.983h-4.802c-9.945 0-18.007 8.062-18.007 18.007v272.51l17.059 43.149c1.2 3.036 5.498 3.036 6.698 0l4.881-12.347z" fill="#2b68b6"/></g><g><path d="m474.488 275.5c4.142 0 7.5-3.358 7.5-7.5v-255.5c0-6.893-5.607-12.5-12.5-12.5h-326.135c-6.893 0-12.5 5.607-12.5 12.5v487c0 6.893 5.607 12.5 12.5 12.5h326.135c6.893 0 12.5-5.607 12.5-12.5v-196.5c0-4.142-3.358-7.5-7.5-7.5s-7.5 3.358-7.5 7.5v130.03h-321.135v-418.03h321.135v253c0 4.142 3.358 7.5 7.5 7.5zm-7.5 172.53v16.985h-233.988c-4.142 0-7.5 3.358-7.5 7.5s3.358 7.5 7.5 7.5h233.988v16.985h-321.135v-16.985h52.147c4.142 0 7.5-3.358 7.5-7.5s-3.358-7.5-7.5-7.5h-52.147v-16.985z"/><path d="m385.052 64.22c4.142 0 7.5-3.358 7.5-7.5s-3.358-7.5-7.5-7.5h-157.263c-4.142 0-7.5 3.358-7.5 7.5s3.358 7.5 7.5 7.5z"/><path d="m438.771 105.338c0-5.79-4.71-10.5-10.5-10.5h-243.701c-5.79 0-10.5 4.71-10.5 10.5v24.012c0 5.79 4.71 10.5 10.5 10.5h243.701c5.79 0 10.5-4.71 10.5-10.5zm-192.144 19.512h-57.557v-15.012h57.557zm177.144 0h-162.144v-15.012h162.144z"/><path d="m352.336 172.565c0-5.79-4.71-10.5-10.5-10.5h-157.266c-5.79 0-10.5 4.71-10.5 10.5v24.012c0 5.79 4.71 10.5 10.5 10.5h157.266c5.79 0 10.5-4.71 10.5-10.5zm-105.709 19.512h-57.557v-15.012h57.557zm90.709 0h-75.709v-15.012h75.709z"/><path d="m438.771 172.565c0-5.79-4.71-10.5-10.5-10.5h-52.824c-5.79 0-10.5 4.71-10.5 10.5v24.012c0 5.79 4.71 10.5 10.5 10.5h52.824c5.79 0 10.5-4.71 10.5-10.5zm-15 19.512h-43.824v-15.012h43.824z"/><path d="m438.771 306.419c0-5.79-4.71-10.5-10.5-10.5h-243.701c-5.79 0-10.5 4.71-10.5 10.5v24.012c0 5.79 4.71 10.5 10.5 10.5h243.701c5.79 0 10.5-4.71 10.5-10.5zm-192.144 19.512h-57.557v-15.012h57.557zm177.144 0h-162.144v-15.012h162.144z"/><path d="m428.271 352.942h-243.701c-5.79 0-10.5 4.71-10.5 10.5v24.012c0 5.79 4.71 10.5 10.5 10.5h243.701c5.79 0 10.5-4.71 10.5-10.5v-24.012c0-5.79-4.711-10.5-10.5-10.5zm-181.644 30.012h-57.557v-15.012h57.557zm177.144 0h-162.144v-15.012h162.144z"/><path d="m174.07 265.005c0 5.79 4.71 10.5 10.5 10.5h24.012c5.79 0 10.5-4.71 10.5-10.5v-24.012c0-5.79-4.71-10.5-10.5-10.5h-24.012c-5.79 0-10.5 4.71-10.5 10.5zm15-19.512h15.012v15.012h-15.012z"/><path d="m344.836 230.493h-105.643c-4.142 0-7.5 3.358-7.5 7.5s3.358 7.5 7.5 7.5h105.643c4.142 0 7.5-3.358 7.5-7.5s-3.358-7.5-7.5-7.5z"/><path d="m344.836 260.505h-105.643c-4.142 0-7.5 3.358-7.5 7.5s3.358 7.5 7.5 7.5h105.643c4.142 0 7.5-3.358 7.5-7.5s-3.358-7.5-7.5-7.5z"/><path d="m431.271 230.493h-58.824c-4.142 0-7.5 3.358-7.5 7.5s3.358 7.5 7.5 7.5h58.824c4.142 0 7.5-3.358 7.5-7.5s-3.358-7.5-7.5-7.5z"/><path d="m431.271 260.505h-58.824c-4.142 0-7.5 3.358-7.5 7.5s3.358 7.5 7.5 7.5h58.824c4.142 0 7.5-3.358 7.5-7.5s-3.358-7.5-7.5-7.5z"/><path d="m85.531 62.425h-4.802c-14.065 0-25.507 11.442-25.507 25.507v12.908h-5.705c-10.755 0-19.505 8.75-19.505 19.504v56.423c0 4.142 3.358 7.5 7.5 7.5s7.5-3.358 7.5-7.5v-56.423c0-2.484 2.021-4.504 4.505-4.504h5.705v244.601c0 .944.178 1.879.525 2.757l17.059 43.149c1.686 4.265 5.738 7.021 10.324 7.021s8.638-2.756 10.324-7.02l17.059-43.149c.347-.878.525-1.813.525-2.757v-194.442c0-4.142-3.358-7.5-7.5-7.5s-7.5 3.358-7.5 7.5v193.013l-12.908 32.65-12.908-32.65v-243.172h25.816v15.159c0 4.142 3.358 7.5 7.5 7.5s7.5-3.358 7.5-7.5v-43.067c.001-14.065-11.442-25.508-25.507-25.508zm10.508 38.416h-25.817v-12.908c0-5.794 4.713-10.507 10.507-10.507h4.802c5.794 0 10.507 4.713 10.507 10.507v12.908z"/></g></g></g></svg>