<svg viewBox="0 0 512 512" xmlns="http://www.w3.org/2000/svg"><g id="filled_outlind" data-name="filled outlind"><path d="m474.619 230.019a220.062 220.062 0 0 0 -325.829-165.948 8 8 0 1 0 7.8 13.969 204.07 204.07 0 0 1 225.679 17.745c88.426 69.529 103.8 198.036 34.271 286.462s-198.04 103.801-286.463 34.271c-83.035-65.29-101.649-182.583-46.039-269.862l1.646 13.754a8 8 0 0 0 15.886-1.9l-4.109-34.35a7.994 7.994 0 0 0 -8.894-6.993l-34.349 4.109a8 8 0 0 0 1.9 15.887l16.268-1.946a220.048 220.048 0 0 0 183.348 340.971 223.724 223.724 0 0 0 26.572-1.59 220 220 0 0 0 192.313-244.579z" fill="#fbb540"/><circle cx="256" cy="256" fill="#0bafea" r="152"/><circle cx="256" cy="256" fill="#cbcbcb" r="120"/><g fill="#eaeae8"><ellipse cx="236" cy="260" rx="100" ry="108"/><path d="m160 264h-23.73q-.27-3.96-.27-8t.27-8h23.73a8 8 0 0 1 0 16z"/><path d="m179.79 300a8 8 0 0 1 -2.93 10.93l-20.56 11.87a118.105 118.105 0 0 1 -8.01-13.85l20.57-11.88a8 8 0 0 1 10.93 2.93z"/><path d="m179.79 212a8.006 8.006 0 0 1 -10.93 2.93l-20.57-11.88a118.105 118.105 0 0 1 8.01-13.85l20.56 11.87a8 8 0 0 1 2.93 10.93z"/><path d="m214.93 343.14-11.88 20.57a118.105 118.105 0 0 1 -13.85-8.01l11.87-20.56a8 8 0 1 1 13.86 8z"/><path d="m214.93 168.86a8 8 0 0 1 -13.86 8l-11.87-20.56a118.105 118.105 0 0 1 13.85-8.01z"/><path d="m256 136q4.035 0 8 .27v23.73a8 8 0 0 1 -16 0v-23.73q3.96-.27 8-.27z"/><path d="m264 352v23.73q-3.96.27-8 .27t-8-.27v-23.73a8 8 0 0 1 16 0z"/><path d="m310.93 335.14 11.87 20.56a118.105 118.105 0 0 1 -13.85 8.01l-11.88-20.57a8 8 0 0 1 13.86-8z"/><path d="m308.95 148.29a118.105 118.105 0 0 1 13.85 8.01l-11.87 20.56a8 8 0 0 1 -13.86-8z"/><path d="m343.14 297.07 20.57 11.88a118.105 118.105 0 0 1 -8.01 13.85l-20.56-11.87a8 8 0 1 1 8-13.86z"/><path d="m332.21 212a8 8 0 0 1 2.93-10.93l20.56-11.87a118.105 118.105 0 0 1 8.01 13.85l-20.57 11.88a8.006 8.006 0 0 1 -10.93-2.93z"/><path d="m376 256q0 4.035-.27 8h-23.73a8 8 0 0 1 0-16h23.73q.27 3.96.27 8z"/></g><path d="m258.818 257.117c-2.047 0-.473-2.186-2.035-3.747-3.124-3.125-2.47-7.132.655-10.257l32.905-32.77a8 8 0 0 1 11.314 11.314l-37.657 37.827c-1.562 1.561-3.134-2.367-5.182-2.367z" fill="#fbb540"/><path d="m256 328a8 8 0 0 1 -8-8v-48a8 8 0 0 1 16 0v48a8 8 0 0 1 -8 8z" fill="#fbb540"/><path d="m264 136.27v23.73a8 8 0 0 1 -16 0v-23.73q3.96-.27 8-.27t8 .27z" fill="#cbcbcb"/><path d="m212 179.79a8.006 8.006 0 0 1 -10.93-2.93l-11.87-20.56a118.105 118.105 0 0 1 13.85-8.01l11.88 20.57a8 8 0 0 1 -2.93 10.93z" fill="#cbcbcb"/><path d="m179.79 212a8.006 8.006 0 0 1 -10.93 2.93l-20.57-11.88a118.105 118.105 0 0 1 8.01-13.85l20.56 11.87a8 8 0 0 1 2.93 10.93z" fill="#cbcbcb"/><path d="m168 256a8 8 0 0 1 -8 8h-23.73q-.27-3.96-.27-8t.27-8h23.73a8 8 0 0 1 8 8z" fill="#cbcbcb"/><path d="m176.86 310.93-20.56 11.87a118.105 118.105 0 0 1 -8.01-13.85l20.57-11.88a8 8 0 0 1 8 13.86z" fill="#cbcbcb"/><path d="m214.93 343.14-11.88 20.57a118.105 118.105 0 0 1 -13.85-8.01l11.87-20.56a8 8 0 1 1 13.86 8z" fill="#cbcbcb"/><path d="m264 352v23.73q-3.96.27-8 .27t-8-.27v-23.73a8 8 0 0 1 16 0z" fill="#cbcbcb"/><path d="m322.8 355.7a118.105 118.105 0 0 1 -13.85 8.01l-11.88-20.57a8 8 0 0 1 13.86-8z" fill="#cbcbcb"/><path d="m363.71 308.95a118.105 118.105 0 0 1 -8.01 13.85l-20.56-11.87a8 8 0 1 1 8-13.86z" fill="#cbcbcb"/><path d="m376 256q0 4.035-.27 8h-23.73a8 8 0 0 1 0-16h23.73q.27 3.96.27 8z" fill="#cbcbcb"/><path d="m363.71 203.05-20.57 11.88a8 8 0 0 1 -8-13.86l20.56-11.87a118.105 118.105 0 0 1 8.01 13.85z" fill="#cbcbcb"/><path d="m322.8 156.3-11.87 20.56a8 8 0 0 1 -13.86-8l11.88-20.57a118.105 118.105 0 0 1 13.85 8.01z" fill="#cbcbcb"/><circle cx="256" cy="256" fill="#0bafea" r="16"/><path d="m256 416c88.224 0 160-71.775 160-160s-71.776-160-160-160-160 71.775-160 160 71.776 160 160 160zm0-304c79.4 0 144 64.6 144 144s-64.6 144-144 144-144-64.6-144-144 64.6-144 144-144z"/><path d="m248 278.624v41.376a8 8 0 0 0 16 0v-41.376a23.99 23.99 0 0 0 13.655-32.965l24-24a8 8 0 0 0 -11.314-11.314l-24 24a24 24 0 1 0 -18.341 44.279zm8-30.624a8 8 0 1 1 -8 8 8.009 8.009 0 0 1 8-8z"/><path d="m144.9 319.519c.079.161.155.323.246.481s.191.283.286.426a128.956 128.956 0 0 0 45.956 46.031c.2.138.4.272.609.394.109.063.224.107.334.164a127.814 127.814 0 0 0 127.332 0c.11-.057.225-.1.334-.164.212-.122.413-.256.609-.394a128.956 128.956 0 0 0 45.956-46.031c.1-.143.2-.276.286-.426s.167-.32.246-.481a127.8 127.8 0 0 0 0-127.038c-.079-.161-.155-.323-.246-.481-.124-.215-.259-.419-.4-.617a128.96 128.96 0 0 0 -45.843-45.84c-.2-.138-.4-.272-.609-.394-.155-.089-.315-.164-.474-.242a127.8 127.8 0 0 0 -127.057 0c-.157.078-.315.152-.469.24-.212.122-.413.256-.609.394a128.96 128.96 0 0 0 -45.843 45.84c-.14.2-.275.4-.4.617-.091.158-.167.32-.246.481a127.8 127.8 0 0 0 0 127.038zm10.362-112.441 13.6 7.85a8 8 0 1 0 8-13.856l-13.576-7.838a112.915 112.915 0 0 1 29.949-29.948l7.838 13.575a8 8 0 1 0 13.856-8l-7.85-13.6a111.156 111.156 0 0 1 40.921-10.972v15.711a8 8 0 0 0 16 0v-15.711a111.156 111.156 0 0 1 40.922 10.976l-7.85 13.6a8 8 0 1 0 13.856 8l7.838-13.575a112.915 112.915 0 0 1 29.949 29.948l-13.576 7.838a8 8 0 1 0 8 13.856l13.6-7.85a111.151 111.151 0 0 1 10.972 40.918h-15.711a8 8 0 0 0 0 16h15.711a111.151 111.151 0 0 1 -10.976 40.922l-13.6-7.85a8 8 0 1 0 -8 13.856l13.576 7.838a112.915 112.915 0 0 1 -29.949 29.948l-7.838-13.575a8 8 0 1 0 -13.856 8l7.85 13.6a111.156 111.156 0 0 1 -40.918 10.972v-15.711a8 8 0 0 0 -16 0v15.711a111.156 111.156 0 0 1 -40.922-10.976l7.85-13.6a8 8 0 0 0 -13.856-8l-7.838 13.575a112.915 112.915 0 0 1 -29.949-29.948l13.576-7.838a8 8 0 1 0 -8-13.856l-13.6 7.85a111.151 111.151 0 0 1 -10.972-40.918h15.711a8 8 0 0 0 0-16h-15.711a111.151 111.151 0 0 1 10.976-40.922z"/><path d="m474.619 230.019a220.062 220.062 0 0 0 -325.829-165.948 8 8 0 1 0 7.8 13.969 204.07 204.07 0 0 1 225.679 17.745c88.426 69.529 103.8 198.036 34.271 286.462a204 204 0 0 1 -286.463 34.271c-82.515-64.881-102-182.1-46.038-269.854l1.645 13.746a8 8 0 0 0 15.886-1.9l-4.109-34.35a7.994 7.994 0 0 0 -8.894-6.993l-34.349 4.109a8 8 0 0 0 1.9 15.887l16.265-1.946a220.05 220.05 0 0 0 183.35 340.971 223.729 223.729 0 0 0 26.573-1.59 220 220 0 0 0 192.313-244.579z"/></g></svg>