<svg id="Capa_1" enable-background="new 0 0 512 512" height="512" viewBox="0 0 512 512" width="512" xmlns="http://www.w3.org/2000/svg"><g><circle cx="256" cy="256" fill="#e5f6fd" r="248.5"/><path d="m406.756 58.459c31.96 41.814 50.959 94.063 50.959 150.756 0 137.243-111.257 248.5-248.5 248.5-56.694 0-108.942-18.999-150.756-50.959 45.407 59.409 116.992 97.744 197.541 97.744 137.243 0 248.5-111.257 248.5-248.5 0-80.549-38.335-152.134-97.744-197.541z" fill="#d3eefd"/><g><circle cx="316.61" cy="256" fill="#688ed5" r="90.915"/><path d="m318.63 256c0-32.956-13.004-62.932-34.149-85.067-34.353 12.982-58.786 46.169-58.786 85.067s24.432 72.086 58.786 85.067c21.145-22.135 34.149-52.111 34.149-85.067z" fill="#4172ca"/><g fill="#ffd15b"><circle cx="195.39" cy="256" r="90.915"/><circle cx="195.39" cy="256" r="90.915"/></g></g><g><path d="m96.976 256c0 54.266 44.148 98.415 98.415 98.415 22.835 0 43.878-7.819 60.594-20.919 17.247 13.517 38.526 20.914 60.625 20.914 54.263 0 98.409-44.146 98.409-98.41 0-21.533-6.832-41.991-19.758-59.161-2.492-3.309-7.195-3.974-10.503-1.481-3.31 2.491-3.973 7.193-1.481 10.502 10.953 14.55 16.743 31.888 16.743 50.14 0 45.993-37.417 83.41-83.409 83.41-17.892 0-35.154-5.708-49.401-16.2 16.485-17.604 26.596-41.247 26.596-67.21s-10.111-49.606-26.596-67.21c14.247-10.492 31.509-16.2 49.401-16.2 15.166 0 30.002 4.104 42.902 11.866 3.55 2.135 8.156.989 10.294-2.56 2.135-3.549.989-8.157-2.56-10.293-15.236-9.168-32.746-14.014-50.637-14.014-22.099 0-43.378 7.398-60.625 20.914-16.716-13.1-37.759-20.919-60.594-20.919-54.267.001-98.415 44.15-98.415 98.416zm98.415-83.415c45.995 0 83.414 37.419 83.414 83.415s-37.419 83.415-83.414 83.415-83.415-37.42-83.415-83.415 37.42-83.415 83.415-83.415z"/><path d="m150.139 472.554c-39.922-19.549-73.666-49.741-97.587-87.311-24.567-38.584-37.552-83.276-37.552-129.243 0-71.498 31.472-138.87 86.347-184.841 3.175-2.66 3.593-7.39.933-10.565-2.66-3.176-7.391-3.593-10.565-.933-58.286 48.828-91.715 120.391-91.715 196.339 0 48.826 13.797 96.304 39.898 137.299 25.403 39.898 61.242 71.963 103.643 92.727 1.062.52 2.186.766 3.293.766 2.773 0 5.439-1.544 6.741-4.203 1.822-3.72.283-8.213-3.436-10.035z"/><path d="m437.019 74.981c-48.353-48.352-112.64-74.981-181.019-74.981-47.911 0-94.64 13.324-135.134 38.533-3.517 2.189-4.592 6.814-2.403 10.331s6.814 4.59 10.331 2.403c38.112-23.726 82.1-36.267 127.206-36.267 64.372 0 124.893 25.069 170.412 70.588s70.588 106.04 70.588 170.412-25.068 124.892-70.588 170.412-106.04 70.588-170.412 70.588c-25.451 0-50.501-3.944-74.453-11.723-3.934-1.277-8.169.876-9.449 4.816s.877 8.171 4.816 9.45c25.45 8.266 52.059 12.457 79.086 12.457 68.379 0 132.666-26.629 181.019-74.981 48.352-48.353 74.981-112.64 74.981-181.019s-26.629-132.666-74.981-181.019z"/><path d="m202.891 132.76v-24.244c0-4.142-3.357-7.5-7.5-7.5s-7.5 3.358-7.5 7.5v24.244c0 4.142 3.357 7.5 7.5 7.5s7.5-3.358 7.5-7.5z"/><path d="m127.275 153.021c1.39 2.406 3.91 3.751 6.502 3.751 1.272 0 2.562-.324 3.743-1.006 3.587-2.071 4.816-6.658 2.745-10.245l-12.122-20.996c-2.071-3.587-6.66-4.817-10.245-2.745-3.587 2.071-4.816 6.658-2.745 10.245z"/><path d="m92.411 187.885-20.995-12.122c-3.589-2.073-8.175-.842-10.245 2.745-2.071 3.587-.842 8.174 2.745 10.245l20.995 12.122c1.182.682 2.471 1.006 3.743 1.006 2.592 0 5.113-1.346 6.502-3.751 2.072-3.588.842-8.174-2.745-10.245z"/><path d="m79.65 256c0-4.142-3.357-7.5-7.5-7.5h-24.244c-4.143 0-7.5 3.358-7.5 7.5s3.357 7.5 7.5 7.5h24.244c4.143 0 7.5-3.358 7.5-7.5z"/><path d="m67.673 337.243c1.272 0 2.562-.324 3.743-1.006l20.995-12.122c3.587-2.071 4.816-6.658 2.745-10.245-2.07-3.588-6.659-4.817-10.245-2.745l-20.995 12.122c-3.587 2.071-4.816 6.658-2.745 10.245 1.389 2.406 3.91 3.751 6.502 3.751z"/><path d="m127.275 358.979-12.122 20.996c-2.071 3.587-.842 8.174 2.745 10.245 1.181.682 2.471 1.006 3.743 1.006 2.592 0 5.113-1.345 6.502-3.751l12.122-20.996c2.071-3.587.842-8.174-2.745-10.245-3.585-2.072-8.174-.843-10.245 2.745z"/><path d="m187.891 379.24v24.244c0 4.142 3.357 7.5 7.5 7.5s7.5-3.358 7.5-7.5v-24.244c0-4.142-3.357-7.5-7.5-7.5s-7.5 3.358-7.5 7.5z"/></g></g></svg>