<svg height="512" viewBox="0 0 128 128" width="512" xmlns="http://www.w3.org/2000/svg"><path d="m115.263 15.557h-97.526a8 8 0 0 0 -8 8v66.26a8 8 0 0 0 8 8h36.843l-1.806 12.088h-9.292a3.156 3.156 0 0 0 -3.157 3.156v.227a3.156 3.156 0 0 0 3.156 3.155h45.038a3.156 3.156 0 0 0 3.156-3.156v-.226a3.156 3.156 0 0 0 -3.156-3.156h-9.293l-1.806-12.088h37.843a7 7 0 0 0 7-7v-68.26a7 7 0 0 0 -7-7z" fill="#e6e7e8"/><rect fill="#6dc9f7" height="80.26" rx="7" width="110.526" x="6.737" y="12.557"/><path d="m110.263 12.557h-96.526a7 7 0 0 0 -7 7v59.6h110.526v-59.6a7 7 0 0 0 -7-7z" fill="#d4fbff"/><path d="m110.263 12.557h-96.526a7 7 0 0 0 -7 7v3.368a7.368 7.368 0 0 1 7.368-7.368h95.795a7.368 7.368 0 0 1 7.368 7.368v-3.368a7 7 0 0 0 -7.005-7z" fill="#fff"/><rect fill="#0089ef" height="4.539" rx="2.156" width="49.349" x="37.326" y="106.905"/><path d="m72.259 92.817h-20.518l-2.105 14.088h24.728z" fill="#0089ef"/><path d="m93.228 83.492a2.105 2.105 0 1 0 2.106 2.1 2.105 2.105 0 0 0 -2.106-2.1z" fill="#fff"/><path d="m100.6 83.492a2.105 2.105 0 1 0 2.105 2.1 2.1 2.1 0 0 0 -2.105-2.1z" fill="#0089ef"/><path d="m107.965 83.492a2.105 2.105 0 1 0 2.106 2.1 2.105 2.105 0 0 0 -2.106-2.1z" fill="#fa759e"/><path d="m94.03 24.686v13.235h13.235a13.235 13.235 0 0 0 -13.235-13.235z" fill="#ffd7e5"/><path d="m90.5 41.451v-13.236a13.236 13.236 0 1 0 5.59 25.22z" fill="#fa759e"/><path d="m103.736 41.451h-13.236l5.59 11.984a13.226 13.226 0 0 0 7.646-11.984z" fill="#6dc9f7"/><path d="m46.5 30.369-15.538 6.918v17.47l15.538 6.918z" fill="#6dc9f7"/><path d="m57.473 45.956a4.808 4.808 0 0 1 -5.335 4.786v-9.567a4.808 4.808 0 0 1 5.335 4.781z" fill="#fa759e"/><path d="m30.962 37.287h-8.962a8.735 8.735 0 0 0 -8.735 8.735 8.735 8.735 0 0 0 8.735 8.735h8.963z" fill="#6dc9f7"/><rect fill="#d4fbff" height="39.08" rx="2.817" width="5.636" x="46.502" y="26.484"/><path d="m23.375 54.757v11a2.4 2.4 0 0 0 4.8 0v-11z" fill="#0089ef"/><g fill="#3a2c60"><path d="m110.264 11.557h-96.527a8.009 8.009 0 0 0 -8 8v66.26a8.009 8.009 0 0 0 8 8h36.843l-1.806 12.083h-9.293a3.16 3.16 0 0 0 -3.156 3.157v.226a3.16 3.16 0 0 0 3.156 3.156h45.037a3.16 3.16 0 0 0 3.157-3.156v-.226a3.16 3.16 0 0 0 -3.157-3.157h-9.292l-1.807-12.083h36.845a8.009 8.009 0 0 0 8-8v-37.655a1 1 0 1 0 -2 0v29.992h-108.527v-58.6a6.007 6.007 0 0 1 6-6h96.527a6.007 6.007 0 0 1 6 6v9.461a1 1 0 0 0 2 0v-9.458a8.009 8.009 0 0 0 -8-8zm-24.589 97.5v.226a1.157 1.157 0 0 1 -1.157 1.156h-45.037a1.157 1.157 0 0 1 -1.156-1.156v-.226a1.158 1.158 0 0 1 1.156-1.157h45.037a1.158 1.158 0 0 1 1.157 1.161zm-12.475-3.157h-22.4l1.8-12.083h18.8zm43.06-25.75v5.663a6.007 6.007 0 0 1 -6 6h-96.523a6.007 6.007 0 0 1 -6-6v-5.659z"/><path d="m117.264 32.229a1 1 0 0 0 -1 1v10.877a1 1 0 1 0 2 0v-10.877a1 1 0 0 0 -1-1z"/><path d="m108.266 37.921a14.251 14.251 0 0 0 -14.236-14.235 1 1 0 0 0 -1 1v13.235a1 1 0 0 0 1 1h13.236a1 1 0 0 0 1-1zm-13.236-1v-11.195a12.258 12.258 0 0 1 11.195 11.2z"/><path d="m90.5 27.215a14.236 14.236 0 1 0 6.013 27.126 14.289 14.289 0 0 0 8.219-12.889 1 1 0 0 0 -1-1h-12.232v-12.237a1 1 0 0 0 -1-1zm-12.234 14.235a12.253 12.253 0 0 1 11.234-12.195v12.2a.862.862 0 0 0 .094.423l5.15 11.043a12.058 12.058 0 0 1 -4.244.77 12.249 12.249 0 0 1 -12.234-12.241zm18.29 10.617-4.485-9.617h10.622a12.293 12.293 0 0 1 -6.137 9.617z"/><path d="m64.8 45.023h-3.852a1 1 0 0 0 0 2h3.852a1 1 0 0 0 0-2z"/><path d="m61.512 51.322a1 1 0 1 0 -1.127 1.653l3.848 2.625a1 1 0 0 0 1.127-1.653z"/><path d="m60.949 40.9a1 1 0 0 0 .563-.173l3.848-2.627a1 1 0 0 0 -1.127-1.653l-3.848 2.625a1 1 0 0 0 .564 1.826z"/><path d="m25.775 69.155a3.4 3.4 0 0 0 3.4-3.4v-10h1.576l14.754 6.569v.421a3.817 3.817 0 1 0 7.634 0v-11a5.807 5.807 0 0 0 0-11.575v-10.87a3.819 3.819 0 1 0 -7.638 0v.419l-14.75 6.567h-8.751a9.735 9.735 0 0 0 0 19.47h.376v10a3.4 3.4 0 0 0 3.399 3.399zm1.4-3.4a1.4 1.4 0 0 1 -2.8 0v-10h2.8zm29.3-19.8a3.819 3.819 0 0 1 -3.334 3.785v-7.564a3.816 3.816 0 0 1 3.332 3.78zm-8.441-17.94a1.82 1.82 0 0 1 3.105 1.285v33.447a1.817 1.817 0 1 1 -3.634 0v-33.447a1.8 1.8 0 0 1 .527-1.284zm-2.534 32.122-13.538-6.029v-16.172l13.538-6.028zm-31.236-14.115a7.743 7.743 0 0 1 7.736-7.735h7.963v15.47h-7.963a7.743 7.743 0 0 1 -7.736-7.735z"/><path d="m105.036 60.764h-29.471a1 1 0 0 0 0 2h29.471a1 1 0 0 0 0-2z"/><path d="m105.036 67.764h-29.471a1 1 0 0 0 0 2h29.471a1 1 0 0 0 0-2z"/></g></svg>