<svg width="264" height="60" viewBox="0 0 264 60" fill="none" xmlns="http://www.w3.org/2000/svg">
<rect width="264" height="60" fill="white"/>
<circle cx="13.3913" cy="17.6522" r="2.55072" fill="#3982F7"/>
<circle cx="21.0435" cy="17.6522" r="2.55072" fill="#3982F7"/>
<circle cx="13.3913" cy="25.3044" r="2.55072" fill="#3982F7"/>
<circle cx="21.0435" cy="25.3044" r="2.55072" fill="#3982F7"/>
<path d="M117.333 21.4783C117.333 15.139 122.472 10 128.812 10H216.812C223.151 10 228.29 15.139 228.29 21.4783C228.29 27.8175 223.151 32.9565 216.812 32.9565H128.812C122.472 32.9565 117.333 27.8175 117.333 21.4783Z" fill="#F3F3F5"/>
<path fill-rule="evenodd" clip-rule="evenodd" d="M98.2029 17.0145C98.2029 15.2535 99.6304 13.826 101.391 13.826C103.152 13.826 104.58 15.2535 104.58 17.0145V21.1594C104.58 22.9203 103.152 24.3478 101.391 24.3478C99.6304 24.3478 98.2029 22.9203 98.2029 21.1594V17.0145ZM98.2029 28.4927C98.2029 28.1405 98.4884 27.855 98.8406 27.855H103.942C104.294 27.855 104.58 28.1405 104.58 28.4927C104.58 28.8449 104.294 29.1304 103.942 29.1304H98.8406C98.4884 29.1304 98.2029 28.8449 98.2029 28.4927ZM101.391 25.6232C98.9261 25.6232 96.9276 23.6247 96.9276 21.1594C96.9276 20.8072 96.6421 20.5217 96.2899 20.5217C95.9377 20.5217 95.6522 20.8072 95.6522 21.1594C95.6522 24.329 98.2217 26.8985 101.391 26.8985C104.561 26.8985 107.13 24.329 107.13 21.1594C107.13 20.8072 106.845 20.5217 106.493 20.5217C106.141 20.5217 105.855 20.8072 105.855 21.1594C105.855 23.6247 103.857 25.6232 101.391 25.6232Z" fill="#3982F7"/>
<path fill-rule="evenodd" clip-rule="evenodd" d="M78.1159 15.7391H68.5507C68.0227 15.7391 67.5942 16.1674 67.5942 16.6956V23.7683C67.6054 23.7632 67.616 23.7581 67.6272 23.7531L72.4098 21.5791C72.9964 21.3124 73.6702 21.3124 74.2569 21.5791L79.0395 23.7531C79.0507 23.7581 79.0613 23.7632 79.0725 23.7683V16.6956C79.0725 16.1674 78.644 15.7391 78.1159 15.7391ZM80.3478 25.7849V26.2608C80.3478 27.4936 79.3483 28.4927 78.1159 28.4927H68.5507C67.3183 28.4927 66.3188 27.4936 66.3188 26.2608V25.7849V16.6956C66.3188 15.4629 67.3183 14.4637 68.5507 14.4637H78.1159C79.3483 14.4637 80.3478 15.4629 80.3478 16.6956V25.7849ZM72.058 18.6087C72.058 19.4891 71.3443 20.2029 70.4638 20.2029C69.5832 20.2029 68.8696 19.4891 68.8696 18.6087C68.8696 17.7283 69.5832 17.0145 70.4638 17.0145C71.3443 17.0145 72.058 17.7283 72.058 18.6087Z" fill="#3982F7"/>
<path fill-rule="evenodd" clip-rule="evenodd" d="M216.812 29.1304C221.037 29.1304 224.464 25.7044 224.464 21.4782C224.464 17.252 221.037 13.826 216.812 13.826C212.586 13.826 209.159 17.252 209.159 21.4782C209.159 25.7044 212.586 29.1304 216.812 29.1304ZM213.805 23.8449C213.695 23.7067 213.54 23.6257 213.378 23.6067C213.217 23.5879 213.048 23.6307 212.91 23.7397C212.633 23.9578 212.586 24.3588 212.804 24.6353C212.927 24.7913 213.061 24.9417 213.205 25.0856C215.197 27.0777 218.427 27.0777 220.419 25.0856C220.487 25.018 220.552 24.9489 220.615 24.8785C220.686 24.7991 220.754 24.718 220.82 24.6353C220.864 24.5791 220.897 24.5176 220.92 24.4537C220.942 24.3911 220.955 24.3261 220.957 24.2612C220.96 24.1414 220.93 24.0212 220.869 23.9161C220.829 23.8501 220.778 23.79 220.714 23.7397C220.438 23.5214 220.037 23.5686 219.819 23.8449C219.726 23.9622 219.626 24.0752 219.517 24.1837C218.023 25.678 215.6 25.678 214.106 24.1837C213.998 24.0752 213.897 23.9622 213.805 23.8449ZM215.011 19.4112C214.836 19.1165 214.565 18.9275 214.261 18.9275C213.733 18.9275 213.304 19.4985 213.304 20.2029C213.304 20.3514 213.323 20.4938 213.358 20.6263C213.399 20.7814 213.462 20.9226 213.542 21.0436C213.622 21.1659 213.72 21.2674 213.83 21.3417C213.959 21.429 214.106 21.4782 214.261 21.4782C214.789 21.4782 215.217 20.9072 215.217 20.2029C215.217 19.9038 215.14 19.6287 215.011 19.4112ZM219.362 18.9275C219.89 18.9275 220.319 19.4985 220.319 20.2029C220.319 20.9072 219.89 21.4782 219.362 21.4782C219.062 21.4782 218.794 21.2941 218.619 21.0059C218.486 20.7867 218.406 20.5072 218.406 20.2029C218.406 19.4985 218.834 18.9275 219.362 18.9275Z" fill="#3982F7"/>
<path fill-rule="evenodd" clip-rule="evenodd" d="M43.5155 14.4637C43.211 14.4637 42.9164 14.5727 42.6854 14.7708L41.1698 16.0698C40.9386 16.2679 40.6442 16.3768 40.3398 16.3768H39.855C38.4464 16.3768 37.3043 17.5187 37.3043 18.9275V25.942C37.3043 27.3508 38.4464 28.4927 39.855 28.4927H50.6956C52.1043 28.4927 53.2464 27.3508 53.2464 25.942V18.9275C53.2464 17.5187 52.1043 16.3768 50.6956 16.3768H50.2109C49.9064 16.3768 49.6121 16.2679 49.3809 16.0698L47.8653 14.7708C47.6343 14.5727 47.3397 14.4637 47.0352 14.4637H43.5155ZM45.2753 26.2608C47.5645 26.2608 49.4203 24.4051 49.4203 22.1159C49.4203 19.8267 47.5645 17.971 45.2753 17.971C42.9862 17.971 41.1304 19.8267 41.1304 22.1159C41.1304 24.4051 42.9862 26.2608 45.2753 26.2608ZM45.2753 24.9855C46.8602 24.9855 48.1449 23.7008 48.1449 22.1159C48.1449 20.5311 46.8602 19.2464 45.2753 19.2464C43.6905 19.2464 42.4058 20.5311 42.4058 22.1159C42.4058 23.7008 43.6905 24.9855 45.2753 24.9855Z" fill="#3982F7"/>
<path d="M238.493 22.7536C238.493 21.8732 239.207 20.5217 240.087 20.5217H241.044C241.396 20.5217 241.681 20.8072 241.681 21.1594V28.4927C241.681 28.8449 241.396 29.1304 241.044 29.1304H240.087C239.207 29.1304 238.493 27.779 238.493 26.8985V22.7536Z" fill="#3982F7"/>
<path fill-rule="evenodd" clip-rule="evenodd" d="M253.797 22.7781C253.797 22.255 253.414 21.8848 253 21.6379C252.991 21.6328 252.988 21.6203 252.996 21.6137C253.324 21.3536 253.478 21.1743 253.478 20.7186C253.478 19.9325 252.18 19.2466 251.406 19.2466L248.377 18.9277C249.164 13.7884 246.942 13.1884 246.145 13.1884C245.667 13.1884 245.448 13.2047 245.533 14.1542L245.765 16.7392C245.769 16.896 245.751 17.0565 245.706 17.2155C245.66 17.3752 245.593 17.521 245.507 17.6521L243.251 20.3641C243.061 20.5932 242.957 20.8817 242.957 21.1797V26.8988V27.2176C242.957 27.922 245.759 28.493 246.464 28.493H250.123C250.861 28.4512 252.043 27.9767 252.043 27.2176C252.043 26.989 251.979 26.6117 251.884 26.4205C251.88 26.4117 251.881 26.4007 251.891 26.3993C252.546 26.2806 253.096 25.6905 253.096 24.9908C253.096 24.6743 252.994 24.3834 252.822 24.1475C252.818 24.1416 252.82 24.1336 252.827 24.1314C253.39 23.9468 253.797 23.4112 253.797 22.7781Z" fill="#3982F7"/>
</svg>
