<svg height="512" viewBox="0 0 128 128" width="512" xmlns="http://www.w3.org/2000/svg"><g><g><path d="m64 95.125a31.1 31.1 0 0 1 36.75-30.608v-62.77h-65.242v124.5h59.5a31.123 31.123 0 0 1 -31.008-31.122z" fill="#4d5680"/><circle cx="68.129" cy="30.153" fill="#f3f5f9" r="20.405"/><path d="m73.142 35.919h-10.027a8.773 8.773 0 0 0 -8.773 8.774v.5a20.4 20.4 0 0 0 27.574 0v-.5a8.774 8.774 0 0 0 -8.774-8.774z" fill="#ffd830"/><path d="m68.129 29.451a5.17 5.17 0 0 1 -5.17-5.17v-2.037a5.17 5.17 0 0 1 5.17-5.17 5.17 5.17 0 0 1 5.17 5.17v2.037a5.17 5.17 0 0 1 -5.17 5.17z" fill="#ffd9b3"/><path d="m1.75 1.747h33.758v124.5h-33.758z" fill="#80a3ff"/><path d="m23.508 110.247h-9.758a4 4 0 0 0 -4 4 4 4 0 0 0 4 4h9.758a4 4 0 0 0 4-4 4 4 0 0 0 -4-4z" fill="#f3f5f9"/><path d="m23.508 92.558h-9.758a4 4 0 0 0 -4 4 4 4 0 0 0 4 4h9.758a4 4 0 0 0 4-4 4 4 0 0 0 -4-4z" fill="#80ecc6"/><path d="m23.508 74.869h-9.758a4 4 0 0 0 -4 4 4 4 0 0 0 4 4h9.758a4 4 0 0 0 4-4 4 4 0 0 0 -4-4z" fill="#ffd830"/><g fill="#80a3ff"><path d="m92.75 61h-49.242a1.75 1.75 0 0 1 0-3.5h49.242a1.75 1.75 0 0 1 0 3.5z"/><path d="m83 70.25h-39.492a1.75 1.75 0 0 1 0-3.5h39.492a1.75 1.75 0 0 1 0 3.5z"/><path d="m73.3 79.5h-29.792a1.75 1.75 0 0 1 0-3.5h29.792a1.75 1.75 0 0 1 0 3.5z"/><path d="m71.323 110.874h-13.635a1.75 1.75 0 0 1 0-3.5h13.635a1.75 1.75 0 1 1 0 3.5z"/><path d="m77.3 120h-12.956a1.75 1.75 0 1 1 0-3.5h12.956a1.75 1.75 0 0 1 0 3.5z"/><path d="m68.347 88.75h-12.277a1.75 1.75 0 1 1 0-3.5h12.277a1.75 1.75 0 0 1 0 3.5z"/></g><g fill="#4d5680"><path d="m27.508 11.5h-17.758a1.75 1.75 0 0 1 0-3.5h17.758a1.75 1.75 0 0 1 0 3.5z"/><path d="m27.508 19.938h-17.758a1.75 1.75 0 0 1 0-3.5h17.758a1.75 1.75 0 0 1 0 3.5z"/><path d="m27.508 28.378h-17.758a1.75 1.75 0 0 1 0-3.5h17.758a1.75 1.75 0 0 1 0 3.5z"/><path d="m27.508 36.818h-17.758a1.75 1.75 0 0 1 0-3.5h17.758a1.75 1.75 0 0 1 0 3.5z"/></g><circle cx="95.125" cy="95.125" fill="#80ecc6" r="31.125"/><path d="m90.031 107.469a1.743 1.743 0 0 1 -1.237-.513l-11-11a1.75 1.75 0 0 1 2.475-2.475l9.762 9.763 19.95-19.95a1.75 1.75 0 1 1 2.475 2.475l-21.187 21.187a1.745 1.745 0 0 1 -1.238.513z" fill="#4d5680"/></g><g><path d="m90.285 30.154a22.156 22.156 0 1 0 -22.156 22.156 22.182 22.182 0 0 0 22.156-22.156zm-34.178 14.246a7.026 7.026 0 0 1 7.009-6.726h10.027a7.026 7.026 0 0 1 7.008 6.726 18.582 18.582 0 0 1 -24.044 0zm-6.633-14.246a18.656 18.656 0 1 1 33.606 11.11 10.533 10.533 0 0 0 -9.937-7.093h-10.027a10.533 10.533 0 0 0 -9.938 7.093 18.529 18.529 0 0 1 -3.704-11.11z"/><path d="m68.129 31.2a6.927 6.927 0 0 0 6.92-6.92v-2.035a6.92 6.92 0 1 0 -13.84 0v2.037a6.928 6.928 0 0 0 6.92 6.918zm-3.42-8.957a3.42 3.42 0 1 1 6.84 0v2.037a3.42 3.42 0 1 1 -6.84 0z"/><path d="m23.508 108.5h-9.758a5.75 5.75 0 1 0 0 11.5h9.758a5.75 5.75 0 0 0 0-11.5zm0 8h-9.758a2.25 2.25 0 0 1 0-4.5h9.758a2.25 2.25 0 1 1 0 4.5z"/><path d="m23.508 90.81h-9.758a5.75 5.75 0 0 0 0 11.5h4.879a1.75 1.75 0 1 0 0-3.5h-4.879a2.25 2.25 0 0 1 0-4.5h9.758a2.253 2.253 0 0 1 2.25 2.25 1.75 1.75 0 0 0 3.5 0 5.757 5.757 0 0 0 -5.75-5.75z"/><path d="m23.508 73.121h-9.758a5.75 5.75 0 0 0 0 11.5h9.758a5.75 5.75 0 1 0 0-11.5zm0 8h-9.758a2.25 2.25 0 1 1 0-4.5h9.758a2.25 2.25 0 0 1 0 4.5z"/><path d="m41.758 59.252a1.75 1.75 0 0 0 1.75 1.748h49.242a1.75 1.75 0 0 0 0-3.5h-49.242a1.75 1.75 0 0 0 -1.75 1.752z"/><path d="m27.508 8h-17.758a1.75 1.75 0 1 0 0 3.5h17.758a1.75 1.75 0 1 0 0-3.5z"/><path d="m27.508 16.44h-17.758a1.75 1.75 0 0 0 0 3.5h17.758a1.75 1.75 0 0 0 0-3.5z"/><path d="m27.508 24.879h-17.758a1.75 1.75 0 0 0 0 3.5h17.758a1.75 1.75 0 0 0 0-3.5z"/><path d="m27.508 33.32h-17.758a1.75 1.75 0 0 0 0 3.5h17.758a1.75 1.75 0 1 0 0-3.5z"/><path d="m102.5 63.1v-8.975a1.75 1.75 0 0 0 -3.5 0v8.363a33.045 33.045 0 0 0 -3.875-.236 32.666 32.666 0 0 0 -16.572 4.5h-35.045a1.75 1.75 0 1 0 0 3.5h30.159a33.168 33.168 0 0 0 -5.256 5.748h-24.9a1.75 1.75 0 1 0 0 3.5h22.7a32.7 32.7 0 0 0 -2.439 5.75h-7.7a1.75 1.75 0 0 0 0 3.5h6.806a32.762 32.762 0 0 0 1.75 18.623h-6.94a1.75 1.75 0 1 0 0 3.5h8.588a32.99 32.99 0 0 0 3.9 5.623h-5.832a1.75 1.75 0 1 0 0 3.5h8.956a1.749 1.749 0 0 0 .326-.033 32.948 32.948 0 0 0 6.759 4.533h-43.127v-120.996h61.742v24a1.75 1.75 0 0 0 3.5 0v-25.752a1.75 1.75 0 0 0 -1.75-1.748h-99a1.75 1.75 0 0 0 -1.75 1.748v124.5a1.75 1.75 0 0 0 1.75 1.752h93.221.154a32.872 32.872 0 0 0 7.375-64.9zm-99-59.6h30.258v121h-30.258zm91.625 121c-.034 0-.068 0-.1 0h-.051a28.714 28.714 0 1 1 .154 0z"/><path d="m109.981 83.3-19.95 19.95-9.762-9.763a1.75 1.75 0 1 0 -2.475 2.475l11 11a1.749 1.749 0 0 0 2.475 0l21.187-21.187a1.75 1.75 0 1 0 -2.475-2.475z"/><path d="m100.75 36.156a1.751 1.751 0 0 0 -1.75 1.75v5.813a1.75 1.75 0 0 0 3.5 0v-5.813a1.751 1.751 0 0 0 -1.75-1.75z"/></g></g></svg>