<svg id="Capa_1" enable-background="new 0 0 511.821 511.821" height="512" viewBox="0 0 511.821 511.821" width="512" xmlns="http://www.w3.org/2000/svg"><g><g><g><path d="m463.242 284.386c22.687 0 41.079-18.392 41.079-41.079v-91.035c0-22.687-18.392-41.079-41.079-41.079h-414.663c-22.687 0-41.079 18.392-41.079 41.079v91.035c0 22.687 18.392 41.079 41.079 41.079z" fill="#f79595"/><path d="m90.951 254.396c-22.687 0-41.079-16.643-41.079-37.173v-82.379c0-8.984 3.522-17.224 9.385-23.65h-10.678c-22.687 0-41.079 18.392-41.079 41.079v91.035c0 22.688 18.392 41.079 41.079 41.079h414.663c18.844 0 34.712-12.692 39.552-29.99h-411.843z" fill="#f37c7c"/><g id="XMLID_420_"><g><path d="m372.754 362.821c0-8.87 7.19-16.07 16.07-16.07 4.44 0 8.46 1.8 11.37 4.71s4.71 6.92 4.71 11.36v11.73 23.64c0 42.14-34.16 76.3-76.3 76.3-14.08 0-27.59-3.87-39.23-10.85-11.65-6.98-21.43-17.07-28.07-29.49l-30.52-57.13c-5.54-10.36-.89-23.23 9.99-27.65 2.43-.99 4.96-1.46 7.46-1.46 6.53 0 12.85 3.24 16.59 8.99l8.93 13.73c.75 1.16 2.54.63 2.54-.75v-84.14c0-8.88 7.2-16.08 16.08-16.08 4.44 0 8.46 1.8 11.37 4.71s4.71 6.93 4.71 11.37v65.08c0-8.87 7.19-16.07 16.07-16.07 4.44 0 8.46 1.8 11.37 4.71s4.71 6.92 4.71 11.36v6c0-8.87 7.19-16.07 16.07-16.07 4.44 0 8.46 1.8 11.37 4.71s4.71 6.92 4.71 11.36z" fill="#ffe5c2"/></g><g><path d="m346.698 464.795c-14.08 0-27.59-3.87-39.23-10.85-11.65-6.98-21.43-17.07-28.07-29.49l-30.52-57.13c-3.401-6.361-2.947-13.669.418-19.385-.35-.019-.71-.029-1.062-.029-2.5 0-5.03.47-7.46 1.46-10.88 4.42-15.53 17.29-9.99 27.65l30.52 57.13c6.64 12.42 16.42 22.51 28.07 29.49 11.64 6.98 25.15 10.85 39.23 10.85 16.688 0 32.114-5.373 44.673-14.462-8.277 3.077-17.23 4.766-26.579 4.766z" fill="#fed2a4"/></g><g id="XMLID_422_" fill="#fed2a4"><path d="m386.977 362.822c0-6.316 3.668-11.783 8.973-14.409-2.146-1.062-4.568-1.661-7.125-1.661-8.88 0-16.07 7.2-16.07 16.07v11.73h2.492c6.478 0 11.73-5.252 11.73-11.73z"/><g id="XMLID_423_"><path d="m355.615 356.822c0-6.161 3.483-11.512 8.576-14.208-2.436-1.289-5.248-1.976-8.225-1.847-8.67.376-15.362 7.825-15.362 16.503v17.282c8.29 0 15.01-6.72 15.01-15.01v-2.72z"/><path d="m324.529 350.822c0-5.941 3.225-11.144 8.024-13.925-2.711-1.571-5.903-2.365-9.32-2.094-8.43.669-14.778 8.009-14.778 16.465v23.284c8.878 0 16.075-7.197 16.075-16.075v-7.655z"/></g></g></g></g><path d="m301.091 272.227c-2.438-1.581-5.315-2.508-8.422-2.563-9.005-.16-16.374 7.55-16.374 16.556v83.122c9.64 0 17.455-7.815 17.455-17.455v-66.146c-.001-5.66 2.92-10.649 7.341-13.514z" fill="#fed2a4"/></g><g><path d="m463.242 103.693h-319.537c-4.142 0-7.5 3.357-7.5 7.5s3.358 7.5 7.5 7.5h319.537c18.516 0 33.579 15.063 33.579 33.58v91.034c0 18.516-15.063 33.579-33.579 33.579h-124.826c-4.143 0-7.5 3.357-7.5 7.5s3.357 7.5 7.5 7.5h124.826c26.787 0 48.579-21.793 48.579-48.579v-91.034c0-26.787-21.792-48.58-48.579-48.58z"/><path d="m253.833 284.386c0-4.143-3.358-7.5-7.5-7.5h-197.754c-18.516 0-33.579-15.063-33.579-33.579v-91.034c0-18.516 15.063-33.58 33.579-33.58h63.129c4.142 0 7.5-3.357 7.5-7.5s-3.358-7.5-7.5-7.5h-63.129c-26.787 0-48.579 21.793-48.579 48.58v91.034c0 26.787 21.792 48.579 48.579 48.579h197.754c4.142 0 7.5-3.357 7.5-7.5z"/><path d="m388.827 339.25c-4.787 0-9.243 1.438-12.966 3.899-4.28-5.986-11.282-9.899-19.185-9.899-4.787 0-9.243 1.438-12.966 3.899-4.28-5.986-11.282-9.899-19.186-9.899-3.025 0-5.916.579-8.575 1.622v-43.135c0-12.999-10.576-23.575-23.575-23.575s-23.575 10.576-23.575 23.575v12.462c0 4.143 3.357 7.5 7.5 7.5s7.5-3.357 7.5-7.5v-12.462c0-4.729 3.847-8.575 8.575-8.575s8.575 3.847 8.575 8.575v88.812c0 4.143 3.357 7.5 7.5 7.5s7.5-3.357 7.5-7.5v-23.723c0-4.729 3.847-8.575 8.575-8.575s8.576 3.847 8.576 8.575v23.723c0 4.143 3.357 7.5 7.5 7.5s7.5-3.357 7.5-7.5v-17.723c0-4.729 3.847-8.575 8.575-8.575s8.575 3.847 8.575 8.575v17.723c0 4.143 3.357 7.5 7.5 7.5s7.5-3.357 7.5-7.5v-11.723c0-4.729 3.847-8.575 8.575-8.575s8.576 3.847 8.576 8.575v35.368c0 14.973-4.725 29.205-13.663 41.158-2.481 3.316-1.803 8.017 1.515 10.497 1.347 1.008 2.923 1.494 4.485 1.494 2.284 0 4.539-1.039 6.012-3.009 10.894-14.565 16.651-31.904 16.651-50.141v-35.368c.002-12.999-10.574-23.575-23.574-23.575z"/><path d="m361.559 458.599c-10.045 5.491-21.44 8.395-32.956 8.395-25.438 0-48.69-13.938-60.68-36.374l-30.529-57.133c-1.662-3.11-1.917-6.65-.719-9.968 1.198-3.317 3.657-5.876 6.923-7.206 5.447-2.22 11.73-.25 14.937 4.683l8.931 13.73c2.165 3.324 6.176 4.795 9.976 3.671 3.803-1.129 6.357-4.552 6.357-8.519v-39.684c0-4.143-3.357-7.5-7.5-7.5s-7.5 3.357-7.5 7.5v19.562c-7.558-8.664-19.957-11.772-30.856-7.336-7.148 2.91-12.752 8.742-15.375 16.002-2.623 7.259-2.041 15.327 1.597 22.134l30.528 57.133c14.604 27.328 42.924 44.305 73.91 44.305 14.023 0 27.907-3.539 40.151-10.234 3.635-1.986 4.97-6.544 2.982-10.178-1.986-3.637-6.545-4.972-10.177-2.983z"/><path d="m305.41 67.809c4.143 0 7.5-3.357 7.5-7.5v-22.982c0-4.143-3.357-7.5-7.5-7.5s-7.5 3.357-7.5 7.5v22.981c0 4.143 3.357 7.501 7.5 7.501z"/><path d="m265.916 78.72c1.481 1.646 3.524 2.482 5.576 2.482 1.788 0 3.583-.636 5.016-1.926 3.079-2.771 3.328-7.514.557-10.592l-15.376-17.08c-2.772-3.079-7.513-3.328-10.592-.557-3.078 2.771-3.327 7.514-.556 10.592z"/><path d="m334.311 79.277c1.433 1.29 3.228 1.926 5.016 1.926 2.052 0 4.095-.837 5.576-2.482l15.376-17.08c2.771-3.078 2.522-7.82-.557-10.592-3.075-2.77-7.819-2.522-10.592.557l-15.376 17.08c-2.771 3.077-2.522 7.819.557 10.591z"/><path d="m286.171 154.952c-4.143 0-7.5 3.357-7.5 7.5v69.114c0 3.653 2.633 6.775 6.233 7.393.532.091.987.169 8.636.169 3.688 0 9.049-.018 16.895-.062 4.142-.023 7.481-3.399 7.458-7.542-.023-4.128-3.376-7.458-7.499-7.458h-.043c-5.804.032-12.046.056-16.68.059v-61.673c0-4.142-3.357-7.5-7.5-7.5z"/><path d="m128.353 240.627c4.142 0 7.5-3.357 7.5-7.5v-28.272h32.868v28.272c0 4.143 3.358 7.5 7.5 7.5s7.5-3.357 7.5-7.5v-69.173c0-4.143-3.358-7.5-7.5-7.5s-7.5 3.357-7.5 7.5v25.9h-32.868v-25.9c0-4.143-3.358-7.5-7.5-7.5s-7.5 3.357-7.5 7.5v69.173c0 4.143 3.358 7.5 7.5 7.5z"/><path d="m244.329 170.584c4.142 0 7.5-3.357 7.5-7.5s-3.358-7.5-7.5-7.5h-28.881c-4.142 0-7.5 3.357-7.5 7.5v68.541c0 4.143 3.358 7.5 7.5 7.5h28.881c4.142 0 7.5-3.357 7.5-7.5s-3.358-7.5-7.5-7.5h-21.381v-19.271h19.251c4.142 0 7.5-3.357 7.5-7.5s-3.358-7.5-7.5-7.5h-19.251v-19.271h21.381z"/><path d="m344.439 240.627c4.143 0 7.5-3.357 7.5-7.5v-22.588c4.123-.021 8.94-.043 11.626-.043 15.11 0 27.403-12.121 27.403-27.021s-12.293-27.021-27.403-27.021h-19.261c-1.993 0-3.904.793-5.312 2.205s-2.194 3.325-2.188 5.318c0 .002.135 69.149.135 69.149 0 4.144 3.357 7.501 7.5 7.501zm19.126-69.173c6.724 0 12.403 5.505 12.403 12.021s-5.68 12.021-12.403 12.021c-2.695 0-7.529.021-11.668.043-.022-4.268-.058-19.623-.07-24.084h11.738z"/></g></g></svg>