<?xml version="1.0" encoding="utf-8"?>
<!-- Generator: Adobe Illustrator 25.2.3, SVG Export Plug-In . SVG Version: 6.00 Build 0)  -->
<svg version="1.1" id="Layer_1" xmlns="http://www.w3.org/2000/svg" xmlns:xlink="http://www.w3.org/1999/xlink" x="0px" y="0px"
	 viewBox="0 0 66.5 74" style="enable-background:new 0 0 66.5 74;" xml:space="preserve">
<style type="text/css">
	.st0{fill:#00C5BB;}
	.st1{fill:#FED402;}
</style>
<g>
	<path class="st0" d="M1.4,19.5L1.4,19.5v-2.9l0,0C1.4,9,7.6,2.8,15.2,2.8h30.4c7.1,0,12.8,5.7,12.8,12.8l0,0
		c0,7.1-5.7,12.8-12.8,12.8H20c-4.4,0-8.5,1.7-11.6,4.8l-7,7L1.4,19.5L1.4,19.5z"/>
	<path class="st1" d="M64.9,51.1L64.9,51.1v-2.9l0,0c0-7.6-6.2-13.8-13.8-13.8H20.7c-7.1,0-12.8,5.7-12.8,12.8l0,0
		c0,7.1,5.7,12.8,12.8,12.8h25.6c4.4,0,8.5,1.7,11.6,4.8l7,7L64.9,51.1L64.9,51.1z"/>
</g>
</svg>
