<?xml version="1.0" encoding="utf-8"?>
<!-- Generator: Adobe Illustrator 25.2.3, SVG Export Plug-In . SVG Version: 6.00 Build 0)  -->
<svg version="1.1" id="Layer_1" xmlns="http://www.w3.org/2000/svg" xmlns:xlink="http://www.w3.org/1999/xlink" x="0px" y="0px"
	 viewBox="0 0 214 74" style="enable-background:new 0 0 214 74;" xml:space="preserve">
<style type="text/css">
	.st0{fill:#00C5BB;}
	.st1{fill:#FED402;}
	.st2{fill:#FFFFFF;}
</style>
<g>
	<path class="st0" d="M148.9,19.5L148.9,19.5v-2.9l0,0c0-7.6,6.2-13.8,13.8-13.8h30.4c7.1,0,12.8,5.7,12.8,12.8l0,0
		c0,7.1-5.7,12.8-12.8,12.8h-25.6c-4.4,0-8.5,1.7-11.6,4.8l-7,7L148.9,19.5L148.9,19.5z"/>
	<path class="st1" d="M212.4,51.1L212.4,51.1v-2.9l0,0c0-7.6-6.2-13.8-13.8-13.8h-30.4c-7.1,0-12.8,5.7-12.8,12.8l0,0
		c0,7.1,5.7,12.8,12.8,12.8h25.6c4.4,0,8.5,1.7,11.6,4.8l7,7L212.4,51.1L212.4,51.1z"/>
</g>
<g>
	<path class="st2" d="M23,12.2c0.3,0,0.4,0.1,0.4,0.3l-2.1,15.7c-0.1,0.4-0.2,0.8-0.3,1c-0.1,0.3-0.2,0.5-0.4,0.6
		c-0.2,0.2-0.4,0.3-0.6,0.3s-0.5,0.1-0.7,0.1h-2.5c-0.5,0-0.9-0.1-1.2-0.4s-0.5-0.8-0.7-1.5l-1.9-6c0-0.1-0.1-0.2-0.1-0.2h-0.1
		c-0.1,0-0.1,0-0.1,0s-0.1,0.1-0.1,0.2l-1.8,6.1c-0.2,0.7-0.5,1.2-0.7,1.5c-0.3,0.3-0.7,0.4-1.2,0.4H6.3c-0.3,0-0.5,0-0.7-0.1
		C5.4,30.1,5.2,30,5,29.9c-0.2-0.2-0.3-0.4-0.4-0.6s-0.2-0.6-0.3-1L2.2,12.5c0-0.1,0-0.2,0.1-0.3c0.1,0,0.2-0.1,0.3-0.1h4.1
		c0.1,0,0.2,0,0.3,0.1c0,0.1,0.1,0.2,0.1,0.3l1.2,10.8c0,0.2,0.1,0.3,0.2,0.3c0.1,0,0.1-0.1,0.2-0.3l1.4-4.9
		c0.1-0.4,0.3-0.7,0.5-0.8c0.2-0.1,0.5-0.2,0.9-0.2h2.6c0.4,0,0.7,0.1,0.9,0.2s0.4,0.4,0.5,0.8l1.4,4.9c0,0.2,0.1,0.3,0.2,0.3
		s0.1-0.1,0.2-0.3l1.2-10.8c0-0.1,0-0.2,0.1-0.3c0-0.1,0.1-0.1,0.3-0.1H23V12.2z"/>
	<path class="st2" d="M37.9,29.8c0,0.1,0,0.2-0.1,0.3c-0.1,0.1-0.2,0.1-0.3,0.1h-3.7c-0.1,0-0.2,0-0.3-0.1s-0.1-0.2-0.1-0.3v-8.4
		c0-0.6-0.1-1.1-0.4-1.3c-0.3-0.2-0.6-0.3-1.1-0.3c-0.6,0-1.2,0.2-1.8,0.5v9.4c0,0.1,0,0.3-0.1,0.4s-0.2,0.2-0.4,0.2H26
		c-0.1,0-0.3-0.1-0.4-0.2s-0.2-0.2-0.2-0.4V12c0-0.1,0-0.2,0.1-0.3s0.2-0.1,0.3-0.1h3.7c0.1,0,0.2,0,0.3,0.1
		c0.1,0.1,0.1,0.2,0.1,0.3v4.9c0.5-0.4,1.1-0.6,1.6-0.7c0.6-0.1,1.2-0.2,2-0.2c0.9,0,1.6,0.1,2.2,0.4c0.6,0.3,1,0.7,1.4,1.2
		c0.3,0.5,0.6,1.1,0.7,1.8c0.1,0.7,0.2,1.4,0.2,2.1v8.3H37.9z"/>
	<path class="st2" d="M52,29.8c0,0.1,0,0.2-0.1,0.3c-0.1,0.1-0.2,0.1-0.3,0.1h-3.4c-0.1,0-0.2,0-0.3-0.1s-0.1-0.2-0.1-0.3v-0.5
		c-0.5,0.3-1,0.6-1.6,0.9c-0.6,0.2-1.2,0.4-1.9,0.4c-0.5,0-1-0.1-1.5-0.2s-0.9-0.4-1.3-0.7c-0.4-0.3-0.7-0.8-1-1.3
		C40.1,27.7,40,27,40,26.1v-0.3c0-1.5,0.5-2.5,1.6-3.1s2.6-0.9,4.7-0.9h1v-0.7c0-0.6-0.1-1-0.3-1.2s-0.6-0.3-1.3-0.3
		c-0.3,0-0.7,0-1.1,0c-0.4,0-0.8,0-1.2,0s-0.8,0-1.1,0s-0.6,0-0.8,0s-0.4,0-0.4-0.1C41,19.4,41,19.3,41,19.1v-2.4
		c0-0.2,0-0.3,0.1-0.4s0.2-0.1,0.4-0.2s0.5-0.1,0.8-0.2c0.3-0.1,0.7-0.1,1.1-0.2c0.4-0.1,0.8-0.1,1.3-0.1c0.4,0,0.9-0.1,1.2-0.1
		c0.9,0,1.7,0.1,2.4,0.3s1.4,0.5,1.9,0.9c0.5,0.4,1,1,1.3,1.6s0.5,1.5,0.5,2.5C52,20.8,52,29.8,52,29.8z M47.5,24.4h-1.2
		c-0.6,0-1.1,0.1-1.3,0.3c-0.3,0.2-0.4,0.6-0.4,1.1V26c0,0.4,0.1,0.7,0.4,0.9s0.5,0.2,0.9,0.2c0.3,0,0.6,0,0.9-0.1s0.6-0.2,0.8-0.3
		v-2.3H47.5z"/>
	<path class="st2" d="M62.4,19.1c0,0.1,0,0.2-0.1,0.3c-0.1,0.1-0.2,0.1-0.3,0.1h-1.8V26c0,0.4,0,0.6,0.1,0.7s0.3,0.2,0.6,0.2H62
		c0.1,0,0.3,0,0.4,0.1c0.1,0.1,0.1,0.2,0.1,0.3v2.3c0,0.1,0,0.2-0.1,0.3S62.2,30,62,30.1c-0.4,0.1-0.8,0.1-1.2,0.2c-0.4,0-0.7,0-1,0
		c-0.6,0-1.2-0.1-1.8-0.2c-0.5-0.1-1-0.3-1.4-0.7s-0.7-0.8-0.9-1.3c-0.2-0.6-0.3-1.3-0.3-2.2v-6.5L53.8,19c-0.1,0-0.2-0.1-0.4-0.2
		c-0.1-0.1-0.2-0.2-0.2-0.3v-2c0-0.1,0-0.2,0.1-0.4c0.1-0.1,0.2-0.2,0.4-0.2h1.6v-2c0-0.1,0.1-0.2,0.2-0.3c0.1-0.1,0.2-0.2,0.4-0.2
		l3.6-0.6c0.2,0,0.4,0,0.4,0.1s0.1,0.2,0.1,0.4v2.6h1.8c0.1,0,0.2,0,0.3,0.1s0.1,0.2,0.1,0.3v2.8H62.4z"/>
	<path class="st2" d="M74.8,26.1c0,0.6-0.1,1.2-0.3,1.7c-0.2,0.5-0.6,1-1,1.4c-0.5,0.4-1,0.7-1.8,0.9c-0.7,0.2-1.6,0.3-2.5,0.3
		s-1.7-0.1-2.5-0.2s-1.5-0.3-2-0.4c-0.3-0.1-0.5-0.3-0.5-0.5v-2.5c0-0.2,0-0.3,0.1-0.4s0.2-0.1,0.5-0.1c0.4,0,0.8,0.1,1.2,0.1
		s0.8,0.1,1.2,0.1c0.4,0,0.7,0.1,1.1,0.1c0.3,0,0.6,0,0.8,0c0.5,0,0.8-0.1,0.9-0.2s0.2-0.3,0.2-0.5c0-0.1,0-0.3-0.1-0.4
		s-0.3-0.3-0.6-0.4l-3-1.6c-1.5-0.8-2.3-2.1-2.3-3.8c0-1.2,0.4-2.2,1.3-2.9s2.2-1,4-1c0.9,0,1.8,0.1,2.5,0.2s1.4,0.3,2,0.4
		c0.3,0.1,0.5,0.3,0.5,0.5v2.6c0,0.2,0,0.3-0.1,0.4S74.2,20,74,20c-0.2,0-0.4,0-0.8-0.1c-0.4,0-0.7-0.1-1.1-0.1s-0.8-0.1-1.2-0.1
		c-0.4,0-0.7,0-1,0c-0.6,0-0.9,0.2-0.9,0.5c0,0.1,0,0.3,0.1,0.3s0.2,0.2,0.4,0.3l2.8,1.5c1,0.5,1.7,1.1,2,1.8S74.8,25.5,74.8,26.1z"
		/>
	<path class="st2" d="M94,29.7c0,0.3-0.2,0.4-0.5,0.5c-0.2,0-0.5,0.1-0.8,0.1s-0.6,0.1-1,0.1c-0.3,0-0.7,0-1,0.1c-0.4,0-0.7,0-1,0
		c-0.8,0-1.5-0.1-2.3-0.2c-0.7-0.1-1.4-0.4-2-0.8s-1.1-0.9-1.4-1.7s-0.5-1.7-0.5-2.8V12.7c0-0.1,0.1-0.2,0.2-0.3s0.2-0.1,0.4-0.1h4
		c0.1,0,0.2,0,0.3,0.1c0.1,0.1,0.1,0.2,0.1,0.3V25c0,0.5,0.1,0.8,0.3,1s0.5,0.3,0.9,0.3h3.9c0.1,0,0.2,0,0.3,0.1
		c0.1,0.1,0.1,0.2,0.1,0.3V29.7z"/>
	<path class="st2" d="M108.2,23.9c0,2.2-0.6,3.8-1.7,4.9s-2.7,1.7-4.7,1.7s-3.6-0.6-4.7-1.7s-1.7-2.8-1.7-4.9v-1.4
		c0-2.2,0.6-3.8,1.7-4.9s2.7-1.7,4.7-1.7s3.6,0.6,4.7,1.7s1.7,2.8,1.7,4.9V23.9z M103.6,22.5c0-1-0.1-1.7-0.4-2.1s-0.7-0.6-1.3-0.6
		s-1,0.2-1.3,0.6s-0.4,1.1-0.4,2.1v1.4c0,1,0.1,1.7,0.4,2.1s0.7,0.6,1.3,0.6s1-0.2,1.3-0.6s0.4-1.1,0.4-2.1V22.5z"/>
	<path class="st2" d="M122.9,23.9c0,2.2-0.6,3.8-1.7,4.9s-2.7,1.7-4.7,1.7s-3.6-0.6-4.7-1.7s-1.7-2.8-1.7-4.9v-1.4
		c0-2.2,0.6-3.8,1.7-4.9s2.7-1.7,4.7-1.7s3.6,0.6,4.7,1.7s1.7,2.8,1.7,4.9V23.9z M118.3,22.5c0-1-0.1-1.7-0.4-2.1s-0.7-0.6-1.3-0.6
		s-1,0.2-1.3,0.6s-0.4,1.1-0.4,2.1v1.4c0,1,0.1,1.7,0.4,2.1s0.7,0.6,1.3,0.6s1-0.2,1.3-0.6s0.4-1.1,0.4-2.1V22.5z"/>
	<path class="st2" d="M137.9,24.1c0,1-0.1,1.8-0.4,2.6c-0.3,0.8-0.7,1.4-1.2,2s-1.2,1-2,1.3s-1.7,0.4-2.8,0.4c-0.2,0-0.5,0-0.8,0
		s-0.6-0.1-0.9-0.1v4.1c0,0.1,0,0.2-0.1,0.4c-0.1,0.1-0.2,0.2-0.3,0.2h-3.6c-0.1,0-0.3-0.1-0.4-0.2s-0.2-0.2-0.2-0.4V17.3
		c0-0.2,0.1-0.4,0.2-0.5s0.3-0.2,0.7-0.3c0.6-0.1,1.4-0.3,2.4-0.4c0.9-0.1,2-0.2,3.1-0.2c2,0,3.6,0.5,4.7,1.6
		c1.1,1.1,1.7,2.7,1.7,4.7L137.9,24.1L137.9,24.1z M133.3,22.2c0-0.7-0.1-1.3-0.4-1.8c-0.2-0.5-0.7-0.7-1.4-0.7c-0.4,0-0.7,0-0.9,0
		c-0.3,0-0.5,0-0.7,0.1v6.7c0.2,0,0.5,0.1,0.8,0.1s0.6,0,0.9,0c0.7,0,1.1-0.2,1.4-0.7c0.2-0.5,0.4-1.1,0.4-1.8v-1.9H133.3z"/>
</g>
<g>
	<path class="st2" d="M12.4,56.3h-1.5c-0.2,0-0.2,0.1-0.2,0.2v1.6c0,0.2,0.1,0.2,0.2,0.2h1.5c0.1,0,0.2-0.1,0.2-0.2v-1.6
		C12.6,56.3,12.5,56.3,12.4,56.3z"/>
	<path class="st2" d="M19.6,44.9h-1.4C18,44.9,18,45,18,45.1v6c0,0.5-0.1,0.8-0.3,0.9c-0.2,0.2-0.5,0.3-0.8,0.3H6.6
		c-0.4,0-0.7-0.1-0.8-0.3s-0.3-0.5-0.3-0.9v-4.6c0-0.2-0.1-0.2-0.2-0.2H3.8c-0.2,0-0.2,0.1-0.2,0.2v4.7c0,1,0.2,1.7,0.6,2.2
		s1.1,0.7,2,0.7h10.9c1,0,1.7-0.2,2.1-0.7s0.6-1.2,0.6-2.2V45C19.8,45,19.7,44.9,19.6,44.9z"/>
	<path class="st2" d="M26.7,44.5c-0.6,0-1.2,0.1-1.7,0.3s-1,0.5-1.4,0.9s-0.7,0.9-0.9,1.6c-0.2,0.6-0.3,1.4-0.3,2.2s0.1,1.6,0.3,2.2
		c0.2,0.6,0.5,1.1,0.9,1.4s0.8,0.6,1.4,0.8c0.5,0.2,1.1,0.2,1.8,0.2H29v0.6c0,0.4-0.1,0.8-0.2,1c-0.1,0.3-0.3,0.5-0.4,0.7
		c-0.2,0.2-0.4,0.3-0.7,0.3s-0.5,0.1-0.8,0.1h-2.7C24,56.8,24,56.9,24,57v1.3c0,0.2,0.1,0.2,0.2,0.2H27c0.6,0,1.1-0.1,1.6-0.2
		c0.5-0.2,0.9-0.4,1.2-0.7c0.3-0.3,0.6-0.7,0.8-1.2c0.2-0.5,0.3-1.1,0.3-1.8v-5.3c0-1.7-0.4-3-1.1-3.8C29.1,44.9,28,44.5,26.7,44.5z
		 M29,52.4h-2.3c-0.8,0-1.5-0.2-1.9-0.6c-0.4-0.4-0.6-1.1-0.6-2.2c0-1,0.2-1.8,0.7-2.4c0.4-0.6,1-0.9,1.8-0.9s1.4,0.3,1.8,0.8
		c0.4,0.6,0.6,1.3,0.6,2.3v3H29z"/>
	<path class="st2" d="M63,38.8h-1.4c-0.2,0-0.2,0.1-0.2,0.2v12.2c0,0.5-0.1,0.8-0.3,0.9s-0.4,0.3-0.8,0.3h-1.4h-2.5l0,0l0,0h-2.5
		l0,0l0,0h-2.5l0,0l0,0h-2.5l0,0l0,0h-2.5l0,0l0,0h-2.5l0,0l0,0h-1.6v-3c0-1.7-0.4-3-1.1-3.8c-0.8-0.8-1.8-1.2-3.1-1.2
		c-0.6,0-1.1,0.1-1.7,0.3c-0.5,0.2-1,0.5-1.4,0.9s-0.7,0.9-0.9,1.6c-0.2,0.6-0.4,1.4-0.4,2.2s0.1,1.6,0.3,2.2
		c0.2,0.6,0.5,1.1,0.9,1.4c0.4,0.4,0.8,0.6,1.4,0.8c0.5,0.2,1.1,0.2,1.8,0.2h2.4v0.6c0,0.4-0.1,0.8-0.2,1c-0.1,0.3-0.3,0.5-0.4,0.7
		c-0.2,0.2-0.4,0.3-0.7,0.3s-0.5,0.1-0.8,0.1h-2.7c-0.2,0-0.2,0.1-0.2,0.2v1.3c0,0.2,0.1,0.2,0.2,0.2h2.8c0.6,0,1.1-0.1,1.6-0.2
		s0.9-0.4,1.2-0.7s0.6-0.7,0.8-1.2s0.3-1.1,0.3-1.8V54H44l0,0l0,0h2.5l0,0l0,0H49l0,0l0,0h2.5l0,0l0,0H54l0,0l0,0h2.5l0,0l0,0H59
		h1.8c0.9,0,1.6-0.2,2-0.7s0.6-1.2,0.6-2.2v-12C63.3,38.9,63.2,38.8,63,38.8z M40.4,52.4h-2.3c-0.8,0-1.5-0.2-1.9-0.6
		c-0.4-0.4-0.6-1.1-0.6-2.2c0-1,0.2-1.8,0.7-2.4c0.4-0.6,1-0.9,1.8-0.9s1.4,0.3,1.8,0.8s0.6,1.3,0.6,2.3L40.4,52.4L40.4,52.4z"/>
	<path class="st2" d="M116.7,42.7h1.5c0.2,0,0.2-0.1,0.2-0.2v-1.6c0-0.1-0.1-0.2-0.2-0.2h-1.5c-0.2,0-0.2,0.1-0.2,0.2v1.6
		C116.5,42.6,116.6,42.7,116.7,42.7z"/>
	<path class="st2" d="M121,40.6h-1.5c-0.2,0-0.2,0.1-0.2,0.2v1.6c0,0.2,0.1,0.2,0.2,0.2h1.5c0.2,0,0.2-0.1,0.2-0.2v-1.6
		C121.2,40.7,121.1,40.6,121,40.6z"/>
	<path class="st2" d="M119.6,44.9h-1.4c-0.2,0-0.2,0.1-0.2,0.2v6c0,0.5-0.1,0.8-0.3,0.9s-0.4,0.3-0.8,0.3h-1.6h-2.5l0,0l0,0h-2.5
		l0,0l0,0h-2.5l0,0l0,0h-2.5l0,0l0,0h-2.5l0,0l0,0h-2.5l0,0l0,0h-2.5l0,0l0,0h-2.5l0,0l0,0H95c-0.6,0-1.1-0.1-1.5-0.4
		c-0.4-0.3-0.6-0.6-0.6-1.2V45c0-0.1-0.1-0.2-0.2-0.2h-1.4c-0.2,0-0.2,0.1-0.2,0.2v6c0,0.5-0.1,0.8-0.3,0.9s-0.4,0.3-0.8,0.3h-0.5
		c-0.6,0-1.1-0.1-1.5-0.4s-0.6-0.6-0.6-1.1v-3.9c0-0.2-0.1-0.2-0.2-0.2h-1.4c-0.2,0-0.2,0.1-0.2,0.2v4.1c0,0.5-0.1,0.8-0.3,0.9
		c-0.2,0.2-0.4,0.3-0.8,0.3h-0.6c-0.6,0-1.1-0.1-1.4-0.4c-0.4-0.3-0.5-0.6-0.5-1.2v-3.8c0-0.2-0.1-0.2-0.2-0.2h-1.4
		c-0.2,0-0.2,0.1-0.2,0.2v6.6c0,1.1-0.3,1.9-0.9,2.4s-1.4,0.7-2.4,0.7c-0.4,0-0.8-0.1-1.2-0.2s-0.8-0.3-1.1-0.5s-0.6-0.6-0.8-1
		s-0.3-1-0.3-1.6c0-0.7,0.1-1.3,0.4-1.9c0.2-0.6,0.5-1.1,0.8-1.6c0.1-0.1,0.1-0.2-0.1-0.3l-1.2-0.7c-0.2-0.1-0.3-0.1-0.3,0
		c-0.4,0.6-0.7,1.2-1,2.1c-0.3,0.8-0.4,1.7-0.4,2.6c0,0.8,0.1,1.5,0.4,2.1s0.6,1.1,1.1,1.5s1,0.7,1.7,1c0.7,0.2,1.4,0.3,2.2,0.3
		c1.7,0,3-0.4,3.9-1.3c0.9-0.9,1.4-2.1,1.4-3.6V53c0.4,0.5,1,0.7,1.8,0.7h1.1c1.2,0,2-0.4,2.3-1.2c0.2,0.4,0.5,0.7,0.8,0.9
		s0.8,0.3,1.3,0.3h1.1c1.2,0,2-0.4,2.3-1.2c0.2,0.4,0.5,0.7,0.8,0.9c0.4,0.2,0.8,0.3,1.3,0.3h0.5l0,0l0,0h2.5l0,0l0,0h2.5l0,0l0,0
		h2.5l0,0l0,0h2.5l0,0l0,0h2.5l0,0l0,0h2.5l0,0l0,0h2.5l0,0l0,0h2.5h1.9c0.9,0,1.6-0.2,2-0.7s0.6-1.2,0.6-2.2v-6.2
		C119.8,45,119.7,44.9,119.6,44.9z"/>
	<path class="st2" d="M124.7,38.8h-1.4c-0.2,0-0.2,0.1-0.2,0.2v14.9c0,0.2,0.1,0.2,0.2,0.2h1.4c0.2,0,0.2-0.1,0.2-0.2V39.1
		C125,38.9,124.9,38.8,124.7,38.8z"/>
	<path class="st2" d="M135.3,45.7c-0.8-0.8-1.8-1.2-3.1-1.2c-0.6,0-1.2,0.1-1.7,0.3s-1,0.5-1.4,0.9s-0.7,0.9-0.9,1.6
		c-0.2,0.6-0.3,1.4-0.3,2.2s0.1,1.6,0.3,2.2c0.2,0.6,0.5,1.1,0.9,1.4c0.4,0.4,0.8,0.6,1.4,0.8c0.5,0.2,1.1,0.2,1.8,0.2h2.4v0.6
		c0,0.4-0.1,0.8-0.2,1c-0.1,0.3-0.3,0.5-0.4,0.7c-0.2,0.2-0.4,0.3-0.7,0.3s-0.5,0.1-0.8,0.1h-2.7c-0.2,0-0.2,0.1-0.2,0.2v1.3
		c0,0.2,0.1,0.2,0.2,0.2h2.8c0.6,0,1.1-0.1,1.6-0.2s0.9-0.4,1.2-0.7s0.6-0.7,0.8-1.2s0.3-1.1,0.3-1.8v-5.3
		C136.4,47.7,136,46.5,135.3,45.7z M134.5,52.4h-2.3c-0.8,0-1.5-0.2-1.9-0.6c-0.4-0.4-0.6-1.1-0.6-2.2c0-1,0.2-1.8,0.7-2.4
		c0.4-0.6,1-0.9,1.8-0.9s1.4,0.3,1.8,0.8s0.6,1.3,0.6,2.3v3H134.5z"/>
</g>
</svg>
