<svg id="Capa_1" enable-background="new 0 0 512 512" height="512" viewBox="0 0 512 512" width="512" xmlns="http://www.w3.org/2000/svg"><g><g><g><g><g><path d="m363.709 130.427-31.231-31.231c-2.64-2.64-2.64-6.92 0-9.56l13.813-13.813c2.64-2.64 6.92-2.64 9.56 0l31.231 31.231c2.64 2.64 2.64 6.92 0 9.56l-13.813 13.813c-2.64 2.64-6.92 2.64-9.56 0z" fill="#918291"/></g><g><path d="m46.291 130.427 31.231-31.231c2.64-2.64 2.64-6.92 0-9.56l-13.814-13.813c-2.64-2.64-6.92-2.64-9.56 0l-31.231 31.231c-2.64 2.64-2.64 6.92 0 9.56l13.813 13.813c2.641 2.64 6.921 2.64 9.561 0z" fill="#918291"/></g></g><path d="m183.103 61.289h43.793v53.789h-43.793z" fill="#b5adb6"/><circle cx="205" cy="307" fill="#fd8087" r="197.5"/><path d="m265.796 396.469c0 32.525 11.887 62.272 31.549 85.141 62.543-33.146 105.155-98.896 105.155-174.61 0-14.124-1.495-27.897-4.313-41.182-.573-.007-1.144-.021-1.719-.021-72.168-.001-130.672 58.503-130.672 130.672z" fill="#fe646f"/><circle cx="205" cy="307" fill="#fff" r="151.636"/><path d="m356.636 307c0-11.598-1.307-22.889-3.773-33.741-50.725 17.953-87.067 66.333-87.067 123.209 0 16.042 2.896 31.405 8.186 45.603 49.067-25.108 82.654-76.167 82.654-135.071z" fill="#f9f7f8"/><path d="m240.936 61.289h-71.872c-6.075 0-11-4.925-11-11v-31.789c0-6.075 4.925-11 11-11h71.872c6.075 0 11 4.925 11 11v31.789c0 6.075-4.925 11-11 11z" fill="#918291"/><g><g><path d="m270.569 353.549c-8.786 14.25-25.632 21.426-41.972 17.786-18.366-4.092-38.337-15.225-55.521-32.409-17.186-17.186-28.319-37.157-32.411-55.524-3.64-16.34 3.536-33.186 17.786-41.972 3.194-1.969 7.323-1.486 9.977 1.167l19.708 19.708c3.697 3.697 2.974 9.876-1.476 12.62l-8.053 4.965c-3.38 2.084-4.756 6.31-3.239 9.979 3.293 7.963 9.242 18.984 19.891 29.229 9.525 9.164 19.453 14.478 26.904 17.551 3.658 1.509 7.87.117 9.947-3.251l4.967-8.056c2.744-4.451 8.923-5.173 12.62-1.476l19.705 19.705c2.654 2.654 3.137 6.783 1.167 9.977z" fill="#b5adb6"/></g></g></g><g><circle cx="396.469" cy="396.469" fill="#7acaa6" r="108.031"/><path d="m396.469 288.438c-5.091 0-10.097.36-15 1.042 52.563 7.303 93.031 52.417 93.031 106.99s-40.468 99.687-93.031 106.99c4.903.681 9.909 1.042 15 1.042 59.664 0 108.031-48.367 108.031-108.031s-48.367-108.033-108.031-108.033z" fill="#57be92"/><path d="m330.194 373.037 34.612-34.612c3.766-3.766 10.207-1.099 10.207 4.228v8.695c0 1.992 1.623 3.613 3.615 3.586.33-.004.66-.007.991-.007 39.895 0 72.236 32.342 72.236 72.237 0 3.918-.311 7.765-.917 11.515-3.137-23.381-23.162-41.414-47.404-41.414-10.009 0-19.299 3.075-26.979 8.329-.971.664-1.542 1.773-1.542 2.95v9.533c0 5.327-6.44 7.994-10.207 4.228l-34.612-34.612c-4.047-4.047-4.047-10.609 0-14.656z" fill="#fff"/></g><g fill="#b5adb6"><circle cx="218.171" cy="251.402" r="7.5"/><circle cx="239.384" cy="272.616" r="7.5"/><circle cx="260.598" cy="293.829" r="7.5"/></g></g><path d="m396.469 280.938c-11.725 0-23.045 1.761-33.717 5.024-10.479-79.29-78.552-138.102-157.752-138.102-87.41 0-159.14 72.017-159.14 159.14 0 87.234 72.167 159.14 159.14 159.14 22.318 0 43.904-4.529 64.156-13.461 3.79-1.672 5.507-6.099 3.836-9.889-1.672-3.79-6.099-5.507-9.889-3.836-16.057 7.082-33.047 11.105-50.604 11.996v-21.708c0-4.143-3.358-7.5-7.5-7.5s-7.5 3.357-7.5 7.5v21.705c-34.102-1.757-65.105-15.424-88.93-36.909l15.296-15.296c2.929-2.93 2.929-7.678 0-10.607-2.929-2.928-7.678-2.928-10.606 0l-15.296 15.295c-21.485-23.825-35.153-54.828-36.909-88.93h21.705c4.142 0 7.5-3.357 7.5-7.5s-3.358-7.5-7.5-7.5h-21.705c1.757-34.102 15.424-65.105 36.909-88.93l15.296 15.296c2.929 2.928 7.678 2.929 10.606 0 2.929-2.93 2.929-7.678 0-10.607l-15.296-15.296c23.825-21.484 54.828-35.152 88.93-36.909v21.705c0 4.143 3.358 7.5 7.5 7.5s7.5-3.357 7.5-7.5v-21.7c33.056 1.701 64.316 14.62 88.977 36.857l-15.342 15.342c-2.929 2.93-2.929 7.678 0 10.607 2.928 2.929 7.677 2.928 10.606 0l15.344-15.344c20.327 22.523 32.984 50.724 36.223 80.945-39.724 18.293-67.37 58.477-67.37 105.001 0 27.013 9.322 51.889 24.915 71.584-30.196 18.962-64.885 28.949-100.852 28.949-104.766 0-190-85.233-190-190s85.234-190 190-190c6.925 0 13.785.365 20.561 1.084.297.053.599.087.907.104 31.485 3.49 61.153 14.671 87.213 32.932.067.046.132.095.2.139 3.288 2.31 6.519 4.732 9.688 7.267 32.986 26.377 56.516 63.391 66.252 104.223.96 4.029 5.006 6.512 9.035 5.557 4.029-.961 6.517-5.007 5.556-9.035-10.508-44.067-35.892-84.006-71.476-112.46-1.158-.926-2.323-1.837-3.496-2.735l18.651-18.658 10.314 10.314c2.693 2.693 6.274 4.177 10.083 4.177s7.39-1.483 10.083-4.177l13.813-13.813c5.559-5.56 5.56-14.605 0-20.167l-31.231-31.23c-5.559-5.559-14.606-5.559-20.166 0l-13.813 13.813c-5.56 5.561-5.56 14.606 0 20.167l10.31 10.31-20.458 20.466c-25.076-16.456-53.05-27.011-82.626-31.207v-35.282h6.536c10.201 0 18.5-8.299 18.5-18.5v-31.789c0-10.201-8.299-18.5-18.5-18.5h-71.872c-10.201 0-18.5 8.299-18.5 18.5v31.789c0 10.201 8.299 18.5 18.5 18.5h6.536v35.328c-30.115 4.344-58.13 15.256-82.549 31.236l-20.536-20.543 10.31-10.31c5.56-5.561 5.56-14.606 0-20.167l-13.814-13.813c-5.56-5.559-14.606-5.558-20.166 0l-31.232 31.231c-5.559 5.561-5.558 14.606.001 20.166l13.813 13.813c2.693 2.694 6.274 4.178 10.083 4.178s7.39-1.483 10.083-4.177l10.314-10.314 18.727 18.734c-48.98 37.495-80.634 96.54-80.634 162.849 0 113.037 91.962 205 205 205 39.694 0 77.95-11.278 111.056-32.664 20.814 20.204 49.184 32.664 80.413 32.664 63.704 0 115.531-51.827 115.531-115.531s-51.827-115.531-115.531-115.531zm-45.398-199.288 30.184 30.183-12.766 12.767-30.184-30.183zm-131.671 20.848c-4.768-.325-9.568-.498-14.4-.498-4.842 0-9.641.181-14.4.513v-33.724h28.8zm-50.336-48.709c-1.93 0-3.5-1.57-3.5-3.5v-31.789c0-1.93 1.57-3.5 3.5-3.5h71.872c1.93 0 3.5 1.57 3.5 3.5v31.789c0 1.93-1.57 3.5-3.5 3.5zm-127.553 70.811-12.767-12.767 30.185-30.183 12.767 12.766zm354.958 372.4c-55.433 0-100.531-45.098-100.531-100.531s45.098-100.531 100.531-100.531 100.531 45.097 100.531 100.531-45.098 100.531-100.531 100.531zm-151.781-219.081c2.929-2.929 2.929-7.678 0-10.606-2.929-2.929-7.678-2.929-10.607 0s-2.929 7.677 0 10.606 7.678 2.929 10.607 0zm21.213 21.213c2.929-2.929 2.929-7.678 0-10.607s-7.678-2.929-10.607 0-2.929 7.677 0 10.607c2.929 2.929 7.678 2.929 10.607 0zm-42.427-42.426c2.929-2.929 2.929-7.678 0-10.607s-7.678-2.929-10.607 0-2.929 7.678 0 10.607c2.93 2.929 7.678 2.929 10.607 0zm159.039 90.773v-4.827c0-5.471-3.266-10.359-8.321-12.453-5.054-2.093-10.821-.945-14.688 2.922l-34.612 34.612c-6.965 6.966-6.965 18.298 0 25.264l34.612 34.611c3.869 3.868 9.636 5.017 14.688 2.923 5.055-2.094 8.322-6.982 8.322-12.454v-7.408c6.318-3.868 13.543-5.903 21.021-5.903 20.117 0 37.301 15.009 39.971 34.911.495 3.686 3.615 6.452 7.333 6.502.034.001.068.001.102.001 3.674 0 6.815-2.667 7.402-6.304.672-4.159 1.013-8.436 1.013-12.712-.001-42.998-34.211-78.156-76.843-79.685zm21.021 42.287c-11.202 0-21.996 3.333-31.214 9.639-3.01 2.06-4.807 5.477-4.807 9.14v5.861l-32.016-32.016c-.729-.729-.838-1.581-.838-2.024s.109-1.295.838-2.024l32.016-32.016v5.022c0 2.993 1.173 5.799 3.304 7.899 2.124 2.096 4.907 3.234 7.9 3.186.3-.003.601-.005.902-.005 27.312 0 50.727 16.999 60.22 40.974-9.791-8.518-22.548-13.636-36.305-13.636zm-220.992-103.492 8.053-4.965c4.086-2.519 6.75-6.698 7.307-11.466.558-4.767-1.069-9.447-4.463-12.842l-19.708-19.707c-5.134-5.135-13.036-6.058-19.217-2.248-16.989 10.474-25.497 30.562-21.17 49.986 4.578 20.549 16.804 41.572 34.428 59.196 17.622 17.622 38.644 29.848 59.193 34.426 3.374.752 6.766 1.116 10.126 1.116 15.984 0 31.205-8.248 39.86-22.286 0-.001 0-.002 0-.002 3.81-6.18 2.886-14.082-2.248-19.216l-19.703-19.703c-3.394-3.395-8.078-5.02-12.843-4.464-4.768.558-8.947 3.222-11.465 7.307l-4.968 8.056c-.152.247-.456.356-.703.254-9.188-3.789-17.453-9.18-24.564-16.022-7.85-7.552-13.96-16.532-18.16-26.688-.109-.269-.006-.576.245-.732zm-14.105 6.462c4.996 12.082 12.271 22.771 21.623 31.767 8.472 8.151 18.311 14.57 29.244 19.08 7.085 2.923 15.157.294 19.19-6.248l4.968-8.057c.042-.067.152-.247.439-.28.287-.029.437.115.493.172l19.706 19.705c.197.196.232.5.085.737-7.122 11.552-20.766 17.337-33.957 14.402-17.803-3.967-36.216-14.76-51.849-30.393-15.634-15.634-26.428-34.048-30.393-51.851-2.938-13.188 2.85-26.835 14.401-33.957.098-.061.207-.09.314-.09.154 0 .307.061.423.177l19.708 19.708c.056.056.205.204.171.492s-.213.398-.281.44l-8.054 4.965c-6.546 4.04-9.168 12.127-6.231 19.231z"/></g></svg>