<svg id="Artboard_30" enable-background="new 0 0 64 64" height="512" viewBox="0 0 64 64" width="512" xmlns="http://www.w3.org/2000/svg"><g><path d="m28 46h-20c-1.105 0-2 .895-2 2v4c0 1.105.895 2 2 2h20z" fill="#ffd55d"/><path d="m21.842 32c-.53 0-1.039.211-1.414.586l-7.013 7c-.265.265-.625.414-1 .414-.782 0-1.415-.633-1.415-1.414v-4.586c0-1.105-.895-2-2-2h-3c-2.209 0-4-1.791-4-4v-22c0-2.209 1.791-4 4-4h30c2.209 0 4 1.791 4 4v22c0 2.209-1.791 4-4 4z" fill="#ffc239"/><path d="m36 2h-27.924c1.029 15.082 13.581 27 28.924 27 .98 0 1.948-.05 2.904-.145.06-.276.096-.561.096-.855v-22c0-2.209-1.791-4-4-4z" fill="#ffd55d"/><path d="m42.158 54c.53 0 1.039.211 1.414.586l7.013 7c.265.265.625.414 1 .414.782 0 1.415-.633 1.415-1.414v-4.586c0-1.105.895-2 2-2h3c2.209 0 4-1.791 4-4v-22c0-2.209-1.791-4-4-4h-30c-2.209 0-4 1.791-4 4v22c0 2.209 1.791 4 4 4z" fill="#5490f5"/><path d="m58 24h-27.924c1.029 15.082 13.581 27 28.924 27 .98 0 1.948-.05 2.904-.145.06-.276.096-.561.096-.855v-22c0-2.209-1.791-4-4-4z" fill="#81b4fc"/><path d="m36 54c1.105 0 2 .895 2 2v4c0 1.105-.895 2-2 2h-32c-1.105 0-2-.895-2-2v-4c0-1.105.895-2 2-2h25z" fill="#ffc239"/><g fill="#e29530"><path d="m19 56h2v4h-2z"/><path d="m16 56h2v4h-2z"/><path d="m13 56h2v4h-2z"/><path d="m10 56h2v4h-2z"/><path d="m7 56h2v4h-2z"/><path d="m4 56h2v4h-2z"/><path d="m22 56h2v4h-2z"/><path d="m25 56h2v4h-2z"/><path d="m28 56h2v4h-2z"/><path d="m31 56h2v4h-2z"/><path d="m34 56h2v4h-2z"/></g><g fill="#e29530"><path d="m20 48h2v4h-2z"/><path d="m17 48h2v4h-2z"/><path d="m14 48h2v4h-2z"/><path d="m11 48h2v4h-2z"/><path d="m8 48h2v4h-2z"/></g><g fill="#ffc239"><path d="m52 15h4v2h-4z"/><path d="m58 15h4v2h-4z"/><path d="m56 11h2v4h-2z"/><path d="m56 17h2v4h-2z"/><path d="m43 6h4v2h-4z"/><path d="m49 6h4v2h-4z"/><path d="m47 2h2v4h-2z"/><path d="m47 8h2v4h-2z"/></g><g fill="#f6f8ff"><path d="m39 38h-10c-.552 0-1-.448-1-1v-8c0-.552.448-1 1-1h10c.552 0 1 .448 1 1v8c0 .552-.448 1-1 1z"/><g><path d="m44 28h14v2h-14z"/><path d="m44 32h14v2h-14z"/><path d="m28 41h4v2h-4z"/><path d="m34 41h25v2h-25z"/><path d="m28 45h20v2h-20z"/><path d="m50 45h9v2h-9z"/></g><path d="m17 16h-10c-.552 0-1-.448-1-1v-8c0-.552.448-1 1-1h10c.552 0 1 .448 1 1v8c0 .552-.448 1-1 1z"/></g><g><path d="m22 6h14v2h-14z" fill="#f6f8ff"/></g><g><path d="m22 10h14v2h-14z" fill="#f6f8ff"/></g><g><path d="m6 19h4v2h-4z" fill="#f6f8ff"/></g><g><path d="m12 19h25v2h-25z" fill="#f6f8ff"/></g><g><path d="m6 23h16v2h-16z" fill="#f6f8ff"/></g></g><g><path d="m58 23h-17v-17c0-2.757-2.243-5-5-5h-30c-2.757 0-5 2.243-5 5v22c0 2.757 2.243 5 5 5h3c.551 0 1 .449 1 1v4.586c0 1.331 1.083 2.414 2.414 2.414.645 0 1.251-.251 1.707-.706l7.014-7.001c.186-.186.444-.293.707-.293h1.158v12h-15c-1.654 0-3 1.346-3 3v4c0 .352.072.686.184 1h-1.184c-1.654 0-3 1.346-3 3v4c0 1.654 1.346 3 3 3h32c1.654 0 3-1.346 3-3v-4c0-.352-.072-.686-.184-1h3.342c.263 0 .521.107.708.294l7.013 6.999c.456.456 1.062.707 1.707.707 1.331 0 2.414-1.083 2.414-2.414v-4.586c0-.551.449-1 1-1h3c2.757 0 5-2.243 5-5v-22c0-2.757-2.243-5-5-5zm-36.158 8c-.801 0-1.555.312-2.121.878l-7.014 7.001c-.239.238-.707.045-.707-.293v-4.586c0-1.654-1.346-3-3-3h-3c-1.654 0-3-1.346-3-3v-22c0-1.654 1.346-3 3-3h30c1.654 0 3 1.346 3 3v17h-11c-2.757 0-5 2.243-5 5v3zm-14.842 21v-4c0-.551.449-1 1-1h15v3c0 1.13.391 2.162 1.026 3h-16.026c-.551 0-1-.449-1-1zm30 4v4c0 .551-.449 1-1 1h-32c-.551 0-1-.449-1-1v-4c0-.551.449-1 1-1h24 1 7c.551 0 1 .449 1 1zm24-6c0 1.654-1.346 3-3 3h-3c-1.654 0-3 1.346-3 3v4.586c0 .338-.468.533-.708.292l-7.013-6.999c-.566-.567-1.32-.879-2.121-.879h-13.158-1c-1.654 0-3-1.346-3-3v-22c0-1.654 1.346-3 3-3h30c1.654 0 3 1.346 3 3z"/><path d="m19 56h2v4h-2z"/><path d="m16 56h2v4h-2z"/><path d="m13 56h2v4h-2z"/><path d="m10 56h2v4h-2z"/><path d="m7 56h2v4h-2z"/><path d="m4 56h2v4h-2z"/><path d="m22 56h2v4h-2z"/><path d="m25 56h2v4h-2z"/><path d="m28 56h2v4h-2z"/><path d="m31 56h2v4h-2z"/><path d="m34 56h2v4h-2z"/><path d="m20 48h2v4h-2z"/><path d="m17 48h2v4h-2z"/><path d="m14 48h2v4h-2z"/><path d="m11 48h2v4h-2z"/><path d="m8 48h2v4h-2z"/><path d="m52 15h4v2h-4z"/><path d="m58 15h4v2h-4z"/><path d="m56 11h2v4h-2z"/><path d="m56 17h2v4h-2z"/><path d="m43 6h4v2h-4z"/><path d="m49 6h4v2h-4z"/><path d="m47 2h2v4h-2z"/><path d="m47 8h2v4h-2z"/><path d="m39 39c1.103 0 2-.897 2-2v-8c0-1.103-.897-2-2-2h-10c-1.103 0-2 .897-2 2v8c0 1.103.897 2 2 2zm-10-10h10l.001 8h-10.001z"/><path d="m44 28h14v2h-14z"/><path d="m44 32h14v2h-14z"/><path d="m28 41h4v2h-4z"/><path d="m34 41h25v2h-25z"/><path d="m28 45h20v2h-20z"/><path d="m50 45h9v2h-9z"/><path d="m17 17c1.103 0 2-.897 2-2v-8c0-1.103-.897-2-2-2h-10c-1.103 0-2 .897-2 2v8c0 1.103.897 2 2 2zm-10-10h10l.001 8h-10.001z"/><path d="m22 6h14v2h-14z"/><path d="m22 10h14v2h-14z"/><path d="m6 19h4v2h-4z"/><path d="m12 19h25v2h-25z"/><path d="m6 23h16v2h-16z"/></g></svg>